<svg version="1.1" xmlns="http://www.w3.org/2000/svg" width="610px" height="409px" transform="rotate(0) scale(1, 1)">
<path d="M0 0 C17.55712769 15.27274304 23.63130935 34.01201086 26.546875 56.44140625 C28.18330605 66.43285499 31.64669119 75.69517334 37.2890625 84.078125 C39.1015625 86.828125 39.1015625 86.828125 39.6015625 89.078125 C39.95257377 91.05739262 39.95257377 91.05739262 42.1640625 92.078125 C43.123125 92.449375 43.123125 92.449375 44.1015625 92.828125 C44.1015625 93.488125 44.1015625 94.148125 44.1015625 94.828125 C45.4215625 95.488125 46.7415625 96.148125 48.1015625 96.828125 C48.1015625 97.488125 48.1015625 98.148125 48.1015625 98.828125 C48.68679688 99.10914063 49.27203125 99.39015625 49.875 99.6796875 C51.93655982 100.74301836 53.79998209 101.91600532 55.7265625 103.203125 C60.28360492 106.07769721 65.03819875 108.02434605 70.1015625 109.828125 C71.02195312 110.20759277 71.02195312 110.20759277 71.9609375 110.59472656 C78.68377912 113.17263521 85.0793629 113.36509758 92.2265625 113.328125 C93.41838135 113.32603027 94.6102002 113.32393555 95.83813477 113.32177734 C105.92340372 113.14196513 114.31651873 111.53811224 123.23046875 106.6640625 C125.1015625 105.828125 125.1015625 105.828125 129.1015625 105.828125 C128.80796149 112.30365843 126.86502085 114.97685144 122.3515625 119.203125 C121.7622998 119.76692871 121.17303711 120.33073242 120.56591797 120.91162109 C103.5177564 136.85990127 81.5666247 146.27027159 59.1015625 151.828125 C58.37469238 152.01084961 57.64782227 152.19357422 56.89892578 152.38183594 C51.2077812 153.73669148 45.54802006 154.43090601 39.7265625 154.953125 C38.85773438 155.03949219 37.98890625 155.12585938 37.09375 155.21484375 C16.96078334 157.09114094 -3.97318495 155.12710718 -22.8984375 147.828125 C-23.59372559 147.57015137 -24.28901367 147.31217773 -25.00537109 147.04638672 C-39.75634318 141.54071901 -51.89127395 134.10889508 -63.8984375 123.828125 C-64.83236328 123.11269531 -64.83236328 123.11269531 -65.78515625 122.3828125 C-69.96341637 119.12980812 -73.10771115 115.24058478 -76.3359375 111.078125 C-76.78590088 110.49836914 -77.23586426 109.91861328 -77.69946289 109.32128906 C-80.8984375 105.08579948 -80.8984375 105.08579948 -80.8984375 102.828125 C-81.5584375 102.828125 -82.2184375 102.828125 -82.8984375 102.828125 C-95.38063502 81.71934208 -104.06881475 60.64042904 -99.2109375 35.5703125 C-94.4706715 17.91282164 -84.71173676 3.42670945 -68.875 -5.96484375 C-45.88054225 -17.93496636 -20.33691329 -16.52823342 0 0 Z M-54.7109375 15.765625 C-56.54560303 18.95214934 -57.03972294 22.2041535 -56.8984375 25.828125 C-55.76069422 28.25875837 -54.78029854 29.94626396 -52.8984375 31.828125 C-49.9826684 32.24514622 -49.9826684 32.24514622 -46.8984375 31.828125 C-44.11383694 29.50762454 -43.91726524 28.00071265 -43.5234375 24.390625 C-43.9254562 20.57144732 -44.36145988 18.70336631 -46.8984375 15.828125 C-49.96189503 14.80697249 -51.77862879 14.2489136 -54.7109375 15.765625 Z M-35.2734375 16.140625 C-37.68894459 20.13550212 -37.74347343 24.26797615 -36.8984375 28.828125 C-35.65299167 30.66781504 -35.65299167 30.66781504 -33.8984375 31.828125 C-30.83747667 32.2107451 -28.81947536 32.33628382 -26.0859375 30.828125 C-24.21108964 27.6704865 -23.79295032 24.4357867 -23.8984375 20.828125 C-24.76489833 17.82656749 -24.76489833 17.82656749 -26.8984375 15.828125 C-30.40589789 14.55946912 -31.98176727 14.32154408 -35.2734375 16.140625 Z M-69.1484375 32.453125 C-71.1105306 34.74322296 -71.1105306 34.74322296 -71.3984375 37.765625 C-70.77151657 41.6055157 -69.79492001 43.23653539 -66.8984375 45.828125 C-63.85503623 46.66162451 -63.85503623 46.66162451 -60.8984375 45.828125 C-58.37552364 43.06105819 -57.88458262 41.50701423 -57.9609375 37.765625 C-59.03700802 34.39393738 -60.06695256 32.93151381 -62.8984375 30.828125 C-66.82055975 30.43779796 -66.82055975 30.43779796 -69.1484375 32.453125 Z M-20.125 32.01171875 C-22.10466694 33.70518708 -22.10466694 33.70518708 -22.359375 36.23828125 C-22.33101563 37.11355469 -22.30265625 37.98882812 -22.2734375 38.890625 C-22.26054687 39.76847656 -22.24765625 40.64632812 -22.234375 41.55078125 C-22.1009356 44.02319096 -22.1009356 44.02319096 -19.8984375 45.828125 C-16.85483002 46.15191303 -14.76921783 46.33858244 -12.0859375 44.765625 C-10.31066795 41.86913257 -10.13788592 39.18040294 -9.8984375 35.828125 C-10.64993773 32.55038996 -10.64993773 32.55038996 -13.8984375 30.828125 C-17.73004087 30.51520384 -17.73004087 30.51520384 -20.125 32.01171875 Z M-48.8984375 40.828125 C-49.70372639 42.87813371 -49.70372639 42.87813371 -49.8984375 44.828125 C-50.8884375 45.158125 -51.8784375 45.488125 -52.8984375 45.828125 C-53.2284375 46.818125 -53.5584375 47.808125 -53.8984375 48.828125 C-54.8884375 49.488125 -55.8784375 50.148125 -56.8984375 50.828125 C-56.8984375 51.488125 -56.8984375 52.148125 -56.8984375 52.828125 C-57.8884375 53.158125 -58.8784375 53.488125 -59.8984375 53.828125 C-61.91539972 56.85356834 -62.15654846 57.43879882 -62.0859375 60.828125 C-62.07949219 61.50875 -62.07304687 62.189375 -62.06640625 62.890625 C-61.8246701 65.67902336 -61.24502371 67.45381189 -59.3359375 69.515625 C-55.8623995 71.38599162 -52.76944409 71.32006542 -48.8984375 70.828125 C-47.9084375 70.333125 -47.9084375 70.333125 -46.8984375 69.828125 C-43.70291195 68.23036222 -40.37335775 68.46455185 -36.8984375 68.828125 C-34.3984375 69.828125 -34.3984375 69.828125 -31.8984375 70.828125 C-27.4325015 71.55109415 -24.75273366 71.37985794 -20.8984375 68.890625 C-18.56241102 65.31358445 -18.17520748 63.1760773 -18.3984375 58.9765625 C-19.19216576 55.56601137 -21.24637366 53.97503382 -23.8984375 51.828125 C-24.5584375 50.838125 -25.2184375 49.848125 -25.8984375 48.828125 C-26.5584375 48.828125 -27.2184375 48.828125 -27.8984375 48.828125 C-28.1253125 48.085625 -28.3521875 47.343125 -28.5859375 46.578125 C-30.68691084 42.17608563 -34.41737644 39.62054942 -38.8984375 37.828125 C-42.85861995 37.828125 -45.4023472 39.01533744 -48.8984375 40.828125 Z " fill="" transform="translate(276.8984375,193.171875)"/>
<path d="M0 0 C20.73620158 -0.71663573 44.02551374 12.24341219 59 26 C59 26.66 59 27.32 59 28 C59.5775 28.268125 60.155 28.53625 60.75 28.8125 C63.05550043 30.02929189 65.02056192 31.30333879 67 33 C67 33.66 67 34.32 67 35 C67.56976563 35.22300781 68.13953125 35.44601563 68.7265625 35.67578125 C71.67672977 37.39417765 73.26788725 39.50740045 75.375 42.1875 C77.87642298 45.33774231 80.36599846 48.45287912 83.0625 51.4375 C105.62772075 77.85683559 114.34402332 113.94399369 112 148 C108.92901171 176.85176522 95.80893811 203.69908978 74 223 C71.46547912 225.03513435 68.89954889 226.53615008 66 228 C64.89398438 228.5878125 63.78796875 229.175625 62.6484375 229.78125 C47.2732751 237.50644749 28.51153605 239.54065104 11.93701172 234.35449219 C-4.82891842 228.46006739 -16.73826813 217.5590972 -24.63964844 201.64575195 C-31.60200277 186.5036374 -31.22156757 169.66470272 -26 154 C-21.3826301 142.39512737 -12.54238423 129.02825616 -2 122 C-1.34 122 -0.68 122 0 122 C0.495 120.515 0.495 120.515 1 119 C2.98600337 117.6459068 4.98817543 116.31542376 7 115 C7.9075 114.0925 8.815 113.185 9.75 112.25 C10.4925 111.5075 11.235 110.765 12 110 C12.66 110 13.32 110 14 110 C14.26039063 109.43796875 14.52078125 108.8759375 14.7890625 108.296875 C16.12380457 105.76517068 17.68890838 103.56193349 19.375 101.25 C22.39493277 96.98324852 24.84934608 92.75354815 27 88 C27.53625 86.9275 28.0725 85.855 28.625 84.75 C33.73186241 70.82219344 33.84475189 53.62423285 28.10498047 39.85253906 C26.46786325 36.32316947 24.68873015 32.88330691 22.83984375 29.4609375 C21.35467274 26.66717632 20.09493546 23.96143167 19 21 C18.34 21 17.68 21 17 21 C16.9175 20.38125 16.835 19.7625 16.75 19.125 C16.18741541 16.81562433 16.18741541 16.81562433 13.9375 15.75 C12.9784375 15.37875 12.9784375 15.37875 12 15 C12 14.34 12 13.68 12 13 C11.43796875 12.74476562 10.8759375 12.48953125 10.296875 12.2265625 C7.70613518 10.84307219 5.54892155 9.20061417 3.25 7.375 C2.45078125 6.74335937 1.6515625 6.11171875 0.828125 5.4609375 C0.22484375 4.97882813 -0.3784375 4.49671875 -1 4 C-0.67 2.68 -0.34 1.36 0 0 Z M60.60546875 140.109375 C57.28102063 141.24576806 53.95248246 141.85416248 50.5 142.5 C38.13496501 144.84702477 28.42871312 149.14268396 20.3125 159.0625 C15.47098525 166.20949797 15.31031735 174.17222148 16.5 182.5 C16.665 183.325 16.83 184.15 17 185 C21.0743183 182.67398993 24.793804 179.98848786 28.5 177.125 C29.05558594 176.70347656 29.61117187 176.28195313 30.18359375 175.84765625 C33.72632952 173.12183367 36.8715054 170.204552 40 167 C41.67576838 165.44558927 43.36316605 163.90361261 45.0625 162.375 C45.89910156 161.61960938 46.73570312 160.86421875 47.59765625 160.0859375 C49.67256751 158.28430724 51.77669141 156.61228383 54 155 C53.71038086 159.77871573 51.41721072 162.1172658 48.27734375 165.44921875 C46.78807487 166.92243943 46.78807487 166.92243943 47 169 C46.01 169.33 45.02 169.66 44 170 C42.81376498 171.4498428 41.63032493 172.90224718 40.47265625 174.375 C38.8568016 176.15801202 37.17549686 177.40057183 35.1875 178.75 C34.135625 179.4925 33.08375 180.235 32 181 C32 181.66 32 182.32 32 183 C31.19175781 183.34611328 31.19175781 183.34611328 30.3671875 183.69921875 C27.30844706 185.38001176 24.76483033 187.55501285 22.125 189.8125 C21.11695313 190.66457031 20.10890625 191.51664063 19.0703125 192.39453125 C18.57047852 192.81943848 18.07064453 193.2443457 17.55566406 193.68212891 C15.05057298 195.80430117 12.524647 197.90115168 10 200 C10.33 200.99 10.66 201.98 11 203 C13.475 202.505 13.475 202.505 16 202 C16 201.34 16 200.68 16 200 C16.804375 199.6596875 16.804375 199.6596875 17.625 199.3125 C20.21135819 198.0573392 20.21135819 198.0573392 22.3125 195.375 C26.54857461 191.64942669 31.95033619 192.7316593 37.24609375 193.01953125 C45.73646537 192.97535658 51.74987233 189.42851465 58 184 C69.91807393 171.18244879 70.59426127 157.33869234 70.06347656 140.72143555 C70.0425293 140.15336182 70.02158203 139.58528809 70 139 C66.17928484 137.76804827 64.28468272 138.5907501 60.60546875 140.109375 Z " fill="" transform="translate(339,65)"/>
<path d="M0 0 C0.72058594 0.63035156 1.44117188 1.26070312 2.18359375 1.91015625 C2.18359375 2.57015625 2.18359375 3.23015625 2.18359375 3.91015625 C2.76109375 4.13445312 3.33859375 4.35875 3.93359375 4.58984375 C10.740289 8.58405034 15.05606284 17.84651328 18.18359375 24.91015625 C18.71984375 25.96203125 19.25609375 27.01390625 19.80859375 28.09765625 C25.2902769 41.21775034 24.43629217 57.88287209 19.40136719 70.93847656 C13.69207331 84.36132363 5.73949578 94.23253091 -6.81640625 101.91015625 C-7.43773437 102.29816406 -8.0590625 102.68617188 -8.69921875 103.0859375 C-24.0743451 111.70532651 -43.44096146 112.24809929 -60.15332031 107.75805664 C-65.80590332 106.08250026 -71.10546694 103.68927637 -76.484375 101.3046875 C-92.5947954 94.56210827 -112.60709576 94.39364457 -128.81640625 100.91015625 C-129.82574219 101.29945313 -130.83507812 101.68875 -131.875 102.08984375 C-148.00184236 109.17810476 -158.98206599 123.30286073 -165.69140625 139.22265625 C-168.05203244 145.81612939 -169.18549086 152.55390277 -170.23828125 159.453125 C-170.81640625 162.91015625 -170.81640625 162.91015625 -171.81640625 164.91015625 C-173.6875 164.640625 -173.6875 164.640625 -175.81640625 163.91015625 C-183.53705208 153.43399373 -183.36751845 137.25893396 -183.25390625 124.84765625 C-183.25053253 124.12815796 -183.24715881 123.40865967 -183.24368286 122.6673584 C-183.05161825 94.25750715 -175.26753947 62.92827993 -157.81640625 39.91015625 C-156.68332031 38.36521484 -156.68332031 38.36521484 -155.52734375 36.7890625 C-150.38263384 29.91614288 -144.80933008 23.62181982 -138.75390625 17.53515625 C-138.09849854 16.87435059 -137.44309082 16.21354492 -136.76782227 15.53271484 C-132.07447882 10.91015625 -132.07447882 10.91015625 -129.81640625 10.91015625 C-129.81640625 10.25015625 -129.81640625 9.59015625 -129.81640625 8.91015625 C-128.49640625 8.58015625 -127.17640625 8.25015625 -125.81640625 7.91015625 C-125.81640625 7.25015625 -125.81640625 6.59015625 -125.81640625 5.91015625 C-123.34670743 4.23821906 -120.89425853 2.71227927 -118.31640625 1.22265625 C-117.54901123 0.77712402 -116.78161621 0.3315918 -115.9909668 -0.12744141 C-79.91993674 -20.67923895 -34.67262113 -25.7279505 0 0 Z M-43.81640625 2.91015625 C-45.81602055 10.78861416 -46.02961808 18.2503206 -45.87890625 26.34765625 C-45.84452571 28.65879248 -45.81437306 30.96999665 -45.7890625 33.28125 C-45.76211304 34.79609985 -45.76211304 34.79609985 -45.73461914 36.34155273 C-45.81640625 38.91015625 -45.81640625 38.91015625 -46.81640625 41.91015625 C-48.13640625 41.58015625 -49.45640625 41.25015625 -50.81640625 40.91015625 C-50.92597656 40.29011719 -51.03554688 39.67007813 -51.1484375 39.03125 C-51.69316875 35.98872669 -52.25284271 32.94925046 -52.81640625 29.91015625 C-52.93419434 29.26836426 -53.05198242 28.62657227 -53.17333984 27.96533203 C-53.54685017 25.94544677 -53.93055541 23.92771705 -54.31640625 21.91015625 C-54.55359375 20.65203125 -54.79078125 19.39390625 -55.03515625 18.09765625 C-55.65605104 14.78161624 -55.65605104 14.78161624 -57.81640625 11.91015625 C-58.80640625 12.24015625 -59.79640625 12.57015625 -60.81640625 12.91015625 C-61.99174292 20.33579324 -61.43140811 26.86837719 -60.37890625 34.28515625 C-59.27312969 42.22356962 -58.59187247 49.88881188 -58.81640625 57.91015625 C-61.29140625 58.40515625 -61.29140625 58.40515625 -63.81640625 58.91015625 C-64.06390625 58.35328125 -64.31140625 57.79640625 -64.56640625 57.22265625 C-66.04565443 54.48604712 -67.75108064 52.23364756 -69.81640625 49.91015625 C-70.47640625 49.91015625 -71.13640625 49.91015625 -71.81640625 49.91015625 C-71.81640625 49.25015625 -71.81640625 48.59015625 -71.81640625 47.91015625 C-74.12640625 47.58015625 -76.43640625 47.25015625 -78.81640625 46.91015625 C-79.76661041 49.14999125 -79.76661041 49.14999125 -79.81640625 51.91015625 C-78.19919821 53.62485556 -76.52310235 55.28450438 -74.81640625 56.91015625 C-69.35181946 63.24096759 -64.23355159 69.61300898 -60.12890625 76.91015625 C-56.3005014 81.87673551 -52.01063951 85.20078756 -45.80859375 86.578125 C-37.25532618 87.48918734 -30.54197663 86.3767476 -23.73828125 80.91796875 C-16.52489692 73.38203472 -14.36344204 62.88572036 -12.81640625 52.91015625 C-12.67041992 51.99041016 -12.52443359 51.07066406 -12.37402344 50.12304688 C-11.89490999 47.03410428 -11.44407341 43.94237742 -11.00390625 40.84765625 C-10.85542236 39.84758545 -10.70693848 38.84751465 -10.55395508 37.81713867 C-10.36482544 36.39171753 -10.36482544 36.39171753 -10.171875 34.9375 C-10.05481201 34.08921631 -9.93774902 33.24093262 -9.81713867 32.36694336 C-9.81627587 29.47280667 -10.59931789 27.51263823 -11.81640625 24.91015625 C-14.96962318 25.57116759 -14.96962318 25.57116759 -15.94140625 28.12109375 C-17.10705699 31.83660549 -17.66451877 35.54517533 -18.25390625 39.38671875 C-18.81640625 41.91015625 -18.81640625 41.91015625 -20.81640625 44.91015625 C-21.80640625 44.58015625 -22.79640625 44.25015625 -23.81640625 43.91015625 C-24.08141272 37.78556217 -23.6123415 31.91053229 -22.75390625 25.84765625 C-21.93051152 19.96547854 -21.76953151 14.77265481 -22.81640625 8.91015625 C-24.13640625 8.91015625 -25.45640625 8.91015625 -26.81640625 8.91015625 C-28.97368493 12.14607428 -29.20647238 13.66872967 -29.59765625 17.4609375 C-29.71753906 18.55212891 -29.83742188 19.64332031 -29.9609375 20.76757812 C-30.07824219 21.90775391 -30.19554687 23.04792969 -30.31640625 24.22265625 C-30.54993289 26.46938779 -30.78933631 28.71551775 -31.03515625 30.9609375 C-31.13763672 31.95778564 -31.24011719 32.95463379 -31.34570312 33.98168945 C-31.84920353 37.11420365 -32.73823006 39.93105801 -33.81640625 42.91015625 C-34.80640625 42.58015625 -35.79640625 42.25015625 -36.81640625 41.91015625 C-37.98768188 38.39632936 -37.88064346 35.71679166 -37.80859375 32.01171875 C-37.79107363 30.63151782 -37.77416571 29.251309 -37.7578125 27.87109375 C-37.72689442 25.7029019 -37.69140519 23.53510667 -37.64501953 21.3671875 C-37.60251138 19.26948198 -37.57919301 17.1722388 -37.55859375 15.07421875 C-37.53651855 13.8207666 -37.51444336 12.56731445 -37.49169922 11.27587891 C-37.84271983 7.63740507 -38.51576887 5.73504054 -40.81640625 2.91015625 C-41.80640625 2.91015625 -42.79640625 2.91015625 -43.81640625 2.91015625 Z " fill="" transform="translate(341.81640625,77.08984375)"/>
<path d="M0 0 C1.43655854 -0.08131463 2.8744483 -0.13933559 4.3125 -0.1875 C5.51326172 -0.23970703 5.51326172 -0.23970703 6.73828125 -0.29296875 C9.47851584 0.06198392 10.29171079 0.89366282 12 3 C12.99 2.34 13.98 1.68 15 1 C15 1.99 15 2.98 15 4 C15.99 4 16.98 4 18 4 C18 3.34 18 2.68 18 2 C18.66 2 19.32 2 20 2 C19.67 2.99 19.34 3.98 19 5 C18.88259878 6.684571 18.82493455 8.37388877 18.8125 10.0625 C18.79123047 11.37927734 18.79123047 11.37927734 18.76953125 12.72265625 C18.77770564 15.19925055 18.77770564 15.19925055 21 17 C23.95746492 17.58345476 23.95746492 17.58345476 27 17 C29.56264345 13.90715445 30.43761722 10.93667948 31 7 C32.99097846 9.98646769 33.94124926 12.59687262 35 16 C36.093125 15.95875 37.18625 15.9175 38.3125 15.875 C42 16 42 16 45 18 C45 18.66 45 19.32 45 20 C46.32 20 47.64 20 49 20 C49 20.66 49 21.32 49 22 C48.34 22 47.68 22 47 22 C46.34 23.32 45.68 24.64 45 26 C44.505 22.535 44.505 22.535 44 19 C38.71800407 17.80011955 38.71800407 17.80011955 34 20 C33.59761155 22.36704913 33.59761155 22.36704913 33.75 25 C33.76546875 25.886875 33.7809375 26.77375 33.796875 27.6875 C33.85958244 30.02519411 33.85958244 30.02519411 35 32 C33.68 31.34 32.36 30.68 31 30 C31 26.37 31 22.74 31 19 C26.71 19 22.42 19 18 19 C17.01 16.36 16.02 13.72 15 11 C12.58749273 16.3599996 12.58749273 16.3599996 11 22 C12.98 22 14.96 22 17 22 C15.35889552 25.28220895 12.30677012 25.74570789 9 27 C8.01 27 7.02 27 6 27 C5.87625 27.639375 5.7525 28.27875 5.625 28.9375 C5.41875 29.618125 5.2125 30.29875 5 31 C4.34 31.33 3.68 31.66 3 32 C2.690625 32.61875 2.38125 33.2375 2.0625 33.875 C0.9574531 36.08509381 -0.10891602 37.42409668 -2 39 C-2.66 39 -3.32 39 -4 39 C-4 37.35 -4 35.7 -4 34 C-3.01 33.505 -3.01 33.505 -2 33 C-1.34 33.33 -0.68 33.66 0 34 C0.12469099 28.42169984 0.12469099 28.42169984 -1 23 C0.65 22.67 2.3 22.34 4 22 C2.68 21.67 1.36 21.34 0 21 C0 20.01 0 19.02 0 18 C-0.99 18 -1.98 18 -3 18 C-2.67 18.66 -2.34 19.32 -2 20 C-1.59398496 28.39097744 -1.59398496 28.39097744 -4 32 C-4.66 31.67 -5.32 31.34 -6 31 C-5.649375 30.46375 -5.29875 29.9275 -4.9375 29.375 C-3.35272252 25.3602304 -4.61204682 22.04975567 -6.0625 18.125 C-6.371875 17.42375 -6.68125 16.7225 -7 16 C-5.68 16 -4.36 16 -3 16 C-2.34 14.68 -1.68 13.36 -1 12 C-0.62875 12.825 -0.2575 13.65 0.125 14.5 C1.79627725 17.32981686 1.79627725 17.32981686 5.0625 17.5 C6.5165625 17.2525 6.5165625 17.2525 8 17 C10.46751239 13.29873141 10.30721156 11.37776468 10 7 C9.54910181 4.59436406 9.54910181 4.59436406 8 3 C4.94091587 2.18415432 4.94091587 2.18415432 2 2 C0.68 3.65 -0.64 5.3 -2 7 C-2 6.01 -2 5.02 -2 4 C-2.66 3.67 -3.32 3.34 -4 3 C-3.01 3 -2.02 3 -1 3 C-0.67 2.01 -0.34 1.02 0 0 Z " fill="" transform="translate(222,207)"/>
<path d="M0 0 C0.7265625 1.66015625 0.7265625 1.66015625 1 4 C-2.31545563 9.88537229 -6.84396658 15.60220679 -12 20 C-12.66 20 -13.32 20 -14 20 C-14.33 20.99 -14.66 21.98 -15 23 C-19.45714286 27 -19.45714286 27 -22 27 C-22 27.66 -22 28.32 -22 29 C-23.58994115 30.45917963 -25.24987572 31.84249355 -26.9375 33.1875 C-27.93394531 33.98414063 -28.93039062 34.78078125 -29.95703125 35.6015625 C-30.96121094 36.39304688 -31.96539062 37.18453125 -33 38 C-33.89074219 38.70898438 -34.78148437 39.41796875 -35.69921875 40.1484375 C-41.84783163 45 -41.84783163 45 -43 45 C-43 43.35 -43 41.7 -43 40 C-41.35 40 -39.7 40 -38 40 C-38.495 38.515 -38.495 38.515 -39 37 C-38 36 -38 36 -35.4375 35.9375 C-34.633125 35.958125 -33.82875 35.97875 -33 36 C-32.67 34.35 -32.34 32.7 -32 31 C-34.31 31.33 -36.62 31.66 -39 32 C-39.05791844 28.87507749 -39.09356746 25.75029234 -39.125 22.625 C-39.14175781 21.73554688 -39.15851563 20.84609375 -39.17578125 19.9296875 C-39.18222656 19.07890625 -39.18867188 18.228125 -39.1953125 17.3515625 C-39.20578613 16.56604004 -39.21625977 15.78051758 -39.22705078 14.97119141 C-39 13 -39 13 -37 11 C-37.01740234 12.42892578 -37.01740234 12.42892578 -37.03515625 13.88671875 C-37.04417969 15.14097656 -37.05320312 16.39523438 -37.0625 17.6875 C-37.07410156 18.92886719 -37.08570313 20.17023438 -37.09765625 21.44921875 C-37.01478673 24.46235454 -36.70839449 27.08275339 -36 30 C-35.02417969 29.21753906 -34.04835938 28.43507812 -33.04296875 27.62890625 C-31.75798844 26.60654966 -30.47282249 25.58442636 -29.1875 24.5625 C-28.22360352 23.7880957 -28.22360352 23.7880957 -27.24023438 22.99804688 C-26.61826172 22.50498047 -25.99628906 22.01191406 -25.35546875 21.50390625 C-24.78465576 21.04830322 -24.21384277 20.5927002 -23.62573242 20.12329102 C-22 19 -22 19 -19 18 C-18.71640625 17.41089844 -18.4328125 16.82179687 -18.140625 16.21484375 C-16.57764771 13.17988443 -14.42103162 11.66794432 -11.75 9.5625 C-10.76902344 8.78132812 -9.78804688 8.00015625 -8.77734375 7.1953125 C-7.86082031 6.47085938 -6.94429688 5.74640625 -6 5 C-4.76661312 3.98426963 -3.53634463 2.96470772 -2.3125 1.9375 C-1.549375 1.298125 -0.78625 0.65875 0 0 Z " fill="" transform="translate(393,219)"/>
<path d="M0 0 C-0.25575847 6.51771597 -2.37950873 9.25442511 -7.0625 13.625 C-7.64797607 14.19114014 -8.23345215 14.75728027 -8.83666992 15.34057617 C-12.91750365 19.20559388 -17.01474482 22.36074726 -22 25 C-22 23.35 -22 21.7 -22 20 C-20.68 20 -19.36 20 -18 20 C-17.855625 19.38125 -17.71125 18.7625 -17.5625 18.125 C-17 16 -17 16 -16 14 C-16.66 13.67 -17.32 13.34 -18 13 C-17.01 11.68 -16.02 10.36 -15 9 C-15.8544873 9.15702393 -16.70897461 9.31404785 -17.58935547 9.47583008 C-23.40327145 10.36935031 -29.25326535 10.46350198 -35.125 10.6875 C-36.39988281 10.74744141 -37.67476563 10.80738281 -38.98828125 10.86914062 C-40.21160156 10.91619141 -41.43492187 10.96324219 -42.6953125 11.01171875 C-43.80922363 11.05772217 -44.92313477 11.10372559 -46.07080078 11.15112305 C-48.98169504 11.00094439 -50.55320551 10.52245817 -53 9 C-53 8.34 -53 7.68 -53 7 C-53.73605469 6.96261719 -54.47210938 6.92523438 -55.23046875 6.88671875 C-65.27651037 6.20990485 -65.27651037 6.20990485 -69 3 C-69 2.34 -69 1.68 -69 1 C-66.59191595 1.50482726 -64.54156407 2.20060683 -62.27734375 3.19140625 C-46.38397125 9.71605391 -26.66026408 9.66410563 -10.72265625 3.2890625 C-9.08479057 2.51360242 -7.46109267 1.70533141 -5.87109375 0.8359375 C-4 0 -4 0 0 0 Z " fill="" transform="translate(406,299)"/>
<path d="M0 0 C0.66 0 1.32 0 2 0 C2.33 3.3 2.66 6.6 3 10 C4.32 10 5.64 10 7 10 C6.7438709 12.08519216 6.46951265 14.1681505 6.1875 16.25 C6.03667969 17.41015625 5.88585937 18.5703125 5.73046875 19.765625 C5.00362557 22.98394666 4.18338975 24.58331655 2 27 C0.68 26.34 -0.64 25.68 -2 25 C-2.36011137 16.49737031 -1.2527717 8.38909618 0 0 Z " fill="" transform="translate(319,96)"/>
<path d="M0 0 C0.33 0.99 0.66 1.98 1 3 C1.99 3.33 2.98 3.66 4 4 C3.60167969 4.78761719 3.20335937 5.57523438 2.79296875 6.38671875 C-1.00675145 14.19879556 -3.37415512 21.4508554 -5 30 C-5.20496094 31.00289062 -5.40992188 32.00578125 -5.62109375 33.0390625 C-6.09447622 35.35700427 -6.55420611 37.67662714 -7 40 C-8.859375 39.765625 -8.859375 39.765625 -11 39 C-13.76775166 34.8654574 -15.64657578 30.0109623 -15 25 C-13.3009831 27.0683684 -12.10237376 28.55211478 -11.5 31.1875 C-11.335 31.785625 -11.17 32.38375 -11 33 C-10.01 33.33 -9.02 33.66 -8 34 C-8 31.03 -8 28.06 -8 25 C-7.34 25 -6.68 25 -6 25 C-6.33 22.03 -6.66 19.06 -7 16 C-5.35 15.34 -3.7 14.68 -2 14 C-2.04125 13.278125 -2.0825 12.55625 -2.125 11.8125 C-1.98987748 8.77224323 -1.14573127 6.79271998 0 4 C0 2.68 0 1.36 0 0 Z " fill="" transform="translate(177,202)"/>
<path d="M0 0 C3 1 3 1 4.3515625 3.15234375 C7.25399063 9.50029239 8.83316537 15.00811232 9 22 C9.66 22 10.32 22 11 22 C10.7150684 33.51123671 9.20141319 43.93651164 6 55 C5.34 55 4.68 55 4 55 C3.67 55.66 3.34 56.32 3 57 C3.56444934 53.9896035 4.23740465 51.02751625 5 48.0625 C8.68501786 33.23992816 7.781062 17.42343652 0.76953125 3.63671875 C0 2 0 2 0 0 Z " fill="" transform="translate(364,96)"/>
<path d="M0 0 C1.99097846 2.98646769 2.94124926 5.59687262 4 9 C5.093125 8.95875 6.18625 8.9175 7.3125 8.875 C11 9 11 9 14 11 C14 11.66 14 12.32 14 13 C15.32 13 16.64 13 18 13 C18 13.66 18 14.32 18 15 C17.34 15 16.68 15 16 15 C15.34 16.32 14.68 17.64 14 19 C13.67 16.69 13.34 14.38 13 12 C7.71800407 10.80011955 7.71800407 10.80011955 3 13 C2.59761155 15.36704913 2.59761155 15.36704913 2.75 18 C2.76546875 18.886875 2.7809375 19.77375 2.796875 20.6875 C2.85958244 23.02519411 2.85958244 23.02519411 4 25 C2.68 24.34 1.36 23.68 0 23 C0 19.37 0 15.74 0 12 C-4.29 12 -8.58 12 -13 12 C-12.67 10.68 -12.34 9.36 -12 8 C-11.34 8.66 -10.68 9.32 -10 10 C-7.04253508 10.58345476 -7.04253508 10.58345476 -4 10 C-1.43735655 6.90715445 -0.56238278 3.93667948 0 0 Z " fill="" transform="translate(253,214)"/>
<path d="M0 0 C20.72013733 -0.58397047 38.94116145 0.91843998 57 12 C56.01 12.66 55.02 13.32 54 14 C54 13.34 54 12.68 54 12 C52.02 11.67 50.04 11.34 48 11 C47.505 9.515 47.505 9.515 47 8 C45.9275 8.020625 44.855 8.04125 43.75 8.0625 C38.53658537 7.97560976 38.53658537 7.97560976 36 7 C35.505 6.01 35.505 6.01 35 5 C31.5745013 3.8581671 28.27754747 3.56147845 24.70703125 3.24609375 C24.00100266 3.18092056 23.29497406 3.11574738 22.56755066 3.04859924 C20.31615898 2.84154913 18.06435315 2.63946315 15.8125 2.4375 C14.28447528 2.29785314 12.75648007 2.15788301 11.22851562 2.01757812 C7.48600892 1.67463575 3.74312317 1.33614429 0 1 C0 0.67 0 0.34 0 0 Z " fill="" transform="translate(278,60)"/>
<path d="M0 0 C3.76464298 0.59441731 7.508954 1.27347802 11.25 2 C12.10078125 2.165 12.9515625 2.33 13.828125 2.5 C16 3 16 3 18 4 C21.56493275 4.08925578 25.12637758 3.85489339 28.6875 3.6875 C29.66912109 3.65205078 30.65074219 3.61660156 31.66210938 3.58007812 C37.12362283 3.334658 41.80310462 2.66705605 47 1 C50.4375 0.875 50.4375 0.875 53 1 C41.84811564 8.43458958 26.37746299 7.76280362 13.5234375 5.78125 C8.74883679 4.72258022 4.37882083 3.16835839 0 1 C0 0.67 0 0.34 0 0 Z " fill="" transform="translate(343,295)"/>
<path d="M0 0 C1.43655854 -0.08131463 2.8744483 -0.13933559 4.3125 -0.1875 C5.51326172 -0.23970703 5.51326172 -0.23970703 6.73828125 -0.29296875 C9.47851584 0.06198392 10.29171079 0.89366282 12 3 C12.99 2.34 13.98 1.68 15 1 C15 1.99 15 2.98 15 4 C15.99 4 16.98 4 18 4 C18 3.34 18 2.68 18 2 C18.66 2 19.32 2 20 2 C19.67 2.99 19.34 3.98 19 5 C18.77820215 6.89212737 18.59385985 8.78884472 18.4375 10.6875 C18.35371094 11.68136719 18.26992187 12.67523438 18.18359375 13.69921875 C18.09271484 14.83810547 18.09271484 14.83810547 18 16 C16 14 16 14 15 11 C14.01 11.99 13.02 12.98 12 14 C11.67 10.7 11.34 7.4 11 4 C8.277797 2.67778712 6.42332301 1.97984176 3.375 2.125 C0.50143352 3.18368239 -0.42244132 4.42608847 -2 7 C-2 6.01 -2 5.02 -2 4 C-2.66 3.67 -3.32 3.34 -4 3 C-3.01 3 -2.02 3 -1 3 C-0.67 2.01 -0.34 1.02 0 0 Z " fill="" transform="translate(222,207)"/>
<path d="M0 0 C4.51617599 -0.07654536 8.59085217 -0.10228696 13 1 C13 1.33 13 1.66 13 2 C9.37 2.33 5.74 2.66 2 3 C3.60875 3.2784375 3.60875 3.2784375 5.25 3.5625 C7.60895616 4.22014838 8.72955785 4.66626288 10.28515625 6.5859375 C11.26465639 8.35127236 12.13575021 10.17547266 13 12 C15.0072908 15.0109362 15.83884224 15.63016497 19 17 C19 18.32 19 19.64 19 21 C18.34 21 17.68 21 17 21 C16.9175 20.38125 16.835 19.7625 16.75 19.125 C16.18741541 16.81562433 16.18741541 16.81562433 13.9375 15.75 C13.298125 15.5025 12.65875 15.255 12 15 C12 14.34 12 13.68 12 13 C11.43796875 12.74476562 10.8759375 12.48953125 10.296875 12.2265625 C7.70613518 10.84307219 5.54892155 9.20061417 3.25 7.375 C2.45078125 6.74335937 1.6515625 6.11171875 0.828125 5.4609375 C-0.07679688 4.73777344 -0.07679688 4.73777344 -1 4 C-0.67 2.68 -0.34 1.36 0 0 Z " fill="" transform="translate(339,65)"/>
<path d="M0 0 C4.11193736 0.11798252 8.22363288 0.24221059 12.33520508 0.37231445 C13.73489199 0.41571434 15.13463359 0.45738564 16.53442383 0.49731445 C18.54261495 0.55489445 20.55061149 0.61914 22.55859375 0.68359375 C23.76829834 0.72025146 24.97800293 0.75690918 26.22436523 0.79467773 C29 1 29 1 30 2 C31.51469448 2.23192865 33.03754562 2.41215238 34.5625 2.5625 C35.80193359 2.68818359 35.80193359 2.68818359 37.06640625 2.81640625 C37.70449219 2.87699219 38.34257812 2.93757812 39 3 C39 3.99 39 4.98 39 6 C31.36386267 5.10911731 31.36386267 5.10911731 29.28710938 4.48632812 C26.24647433 3.83977123 23.37372422 3.88871174 20.265625 3.90234375 C18.32236328 3.90717773 18.32236328 3.90717773 16.33984375 3.91210938 C14.97656183 3.92046402 13.61328058 3.92892896 12.25 3.9375 C10.87109535 3.94251832 9.49218896 3.94708065 8.11328125 3.95117188 C4.74214341 3.96295907 1.37109372 3.97941365 -2 4 C-1.34 3.67 -0.68 3.34 0 3 C0 2.01 0 1.02 0 0 Z " fill="" transform="translate(222,170)"/>
<path d="M0 0 C0.33 0 0.66 0 1 0 C4.20587699 16.01030233 6.4468075 33.85003907 3 50 C2.67 50 2.34 50 2 50 C1.97494385 49.09233887 1.9498877 48.18467773 1.92407227 47.24951172 C1.82856941 43.86121766 1.72935916 40.47307331 1.62768555 37.08496094 C1.58454663 35.62243852 1.54285805 34.15987253 1.50268555 32.69726562 C1.4444693 30.5871064 1.38092712 28.47716225 1.31640625 26.3671875 C1.27974854 25.09987793 1.24309082 23.83256836 1.20532227 22.52685547 C1.01611261 19.2767691 0.56538959 16.2016037 0 13 C-0.06522873 10.70916711 -0.0858841 8.41664206 -0.0625 6.125 C-0.05347656 4.97257813 -0.04445313 3.82015625 -0.03515625 2.6328125 C-0.02355469 1.76398438 -0.01195312 0.89515625 0 0 Z " fill="" transform="translate(447,169)"/>
<path d="M0 0 C0.66 0.33 1.32 0.66 2 1 C1.67 1.99 1.34 2.98 1 4 C0.01 4.33 -0.98 4.66 -2 5 C-2.33 5.66 -2.66 6.32 -3 7 C-18.32432432 9.83783784 -18.32432432 9.83783784 -24 7 C-26.01927511 7.60578253 -28.02253397 8.26919734 -30 9 C-27.23471885 5.6255094 -25.89608556 4.1062984 -21.4765625 3.58203125 C-19.57003906 3.69611328 -19.57003906 3.69611328 -17.625 3.8125 C-10.91937816 4.17441238 -5.69739318 3.79826212 0 0 Z " fill="" transform="translate(390,253)"/>
<path d="M0 0 C0.66 0 1.32 0 2 0 C1.40546697 14.78132118 1.40546697 14.78132118 -2 21 C-3.9375 20.1875 -3.9375 20.1875 -6 19 C-6.96070434 16.11788698 -7.10581883 14.30149956 -7.0625 11.3125 C-7.05347656 10.50425781 -7.04445313 9.69601563 -7.03515625 8.86328125 C-7.02355469 8.24839844 -7.01195312 7.63351563 -7 7 C-6.34 7 -5.68 7 -5 7 C-4.814375 7.9590625 -4.814375 7.9590625 -4.625 8.9375 C-4.41875 9.618125 -4.2125 10.29875 -4 11 C-3.34 11.33 -2.68 11.66 -2 12 C-1.34 8.04 -0.68 4.08 0 0 Z " fill="" transform="translate(310,100)"/>
<path d="M0 0 C0.66 0.33 1.32 0.66 2 1 C2.05411124 3.41696872 2.09372278 5.83271787 2.125 8.25 C2.15013672 9.27287109 2.15013672 9.27287109 2.17578125 10.31640625 C2.21213482 14.0608235 2.07944349 16.82352727 0 20 C-1.875 19.75 -1.875 19.75 -4 19 C-6.28818091 15.60041693 -6.38397225 12.26712912 -6.625 8.25 C-6.69976562 7.07953125 -6.77453125 5.9090625 -6.8515625 4.703125 C-6.90054687 3.81109375 -6.94953125 2.9190625 -7 2 C-4.3184721 5.07692746 -3.57912193 7.19734663 -3.3125 11.25 C-3.24675781 12.14203125 -3.18101562 13.0340625 -3.11328125 13.953125 C-3.07589844 14.62859375 -3.03851563 15.3040625 -3 16 C-2.01 16.33 -1.02 16.66 0 17 C0 11.39 0 5.78 0 0 Z " fill="" transform="translate(295,100)"/>
<path d="M0 0 C0.721875 0.144375 1.44375 0.28875 2.1875 0.4375 C4.96513657 1.0439459 4.96513657 1.0439459 7.6875 1.25 C10 2 10 2 11.3125 4.5625 C11.6528125 5.7690625 11.6528125 5.7690625 12 7 C12.99 7 13.98 7 15 7 C15 7.66 15 8.32 15 9 C16.32 9 17.64 9 19 9 C19 10.65 19 12.3 19 14 C14.18427336 12.68208664 11.05966534 10.76703894 7.25 7.5625 C6.30640625 6.78003906 5.3628125 5.99757813 4.390625 5.19140625 C2 3 2 3 0 0 Z " fill="" transform="translate(324,281)"/>
<path d="M0 0 C0.74609375 1.640625 0.74609375 1.640625 1 4 C-0.65234375 6.796875 -0.65234375 6.796875 -2.9375 9.75 C-3.68902344 10.73484375 -4.44054687 11.7196875 -5.21484375 12.734375 C-5.80394531 13.48203125 -6.39304687 14.2296875 -7 15 C-7.66 14.67 -8.32 14.34 -9 14 C-9 13.34 -9 12.68 -9 12 C-10.98 12.66 -12.96 13.32 -15 14 C-10.75802296 8.34403061 -5.5954014 4.28075369 0 0 Z " fill="" transform="translate(393,219)"/>
<path d="M0 0 C2.43481877 0.52387299 4.60844079 1.23981155 6.93359375 2.15625 C17.88939628 6.35780638 28.33410211 6.91403543 40 7 C40 7.33 40 7.66 40 8 C36.75206573 8.39458375 33.50162729 8.76221514 30.25 9.125 C29.32960938 9.23714844 28.40921875 9.34929687 27.4609375 9.46484375 C26.12675781 9.60986328 26.12675781 9.60986328 24.765625 9.7578125 C23.54020996 9.89920654 23.54020996 9.89920654 22.29003906 10.04345703 C19.68385018 9.99400057 18.217786 9.32265551 16 8 C16 7.34 16 6.68 16 6 C15.26394531 5.96261719 14.52789062 5.92523438 13.76953125 5.88671875 C3.72348963 5.20990485 3.72348963 5.20990485 0 2 C0 1.34 0 0.68 0 0 Z " fill="" transform="translate(337,300)"/>
<path d="M0 0 C-11.61948483 6.07382161 -27.26105103 7.25026682 -40 4 C-40 3.67 -40 3.34 -40 3 C-39.21874756 2.98018066 -38.43749512 2.96036133 -37.63256836 2.93994141 C-34.06722682 2.84424528 -30.50243558 2.73474661 -26.9375 2.625 C-25.70837891 2.5940625 -24.47925781 2.563125 -23.21289062 2.53125 C-15.36261655 2.27733278 -7.67574604 -0.37442664 0 0 Z " fill="" transform="translate(327,182)"/>
<path d="M0 0 C0.33 0.99 0.66 1.98 1 3 C3.01508358 3.73323796 3.01508358 3.73323796 5 4 C4.01 5.485 4.01 5.485 3 7 C1.8553125 7.12375 1.8553125 7.12375 0.6875 7.25 C-2.5099919 8.14232332 -2.73038302 8.79064014 -4.4375 11.5 C-6.37874864 14.52315473 -6.64331675 14.89905191 -10.3125 15.9375 C-11.199375 15.958125 -12.08625 15.97875 -13 16 C-11.625 14 -11.625 14 -10 12 C-9.34 12 -8.68 12 -8 12 C-7.60167969 11.14148438 -7.60167969 11.14148438 -7.1953125 10.265625 C-5.94323109 7.8923988 -4.5063648 5.87786714 -2.875 3.75 C-2.06675781 2.69039062 -2.06675781 2.69039062 -1.2421875 1.609375 C-0.83226562 1.07828125 -0.42234375 0.5471875 0 0 Z " fill="" transform="translate(361,163)"/>
<path d="M0 0 C6.73844784 3.21984946 13.08009664 6.42552922 19 11 C16 13 16 13 12 13 C12 12.34 12 11.68 12 11 C11.34 11 10.68 11 10 11 C9.67 9.68 9.34 8.36 9 7 C8.071875 6.9175 7.14375 6.835 6.1875 6.75 C3 6 3 6 1.125 4.0625 C0 2 0 2 0 0 Z " fill="" transform="translate(369,73)"/>
<path d="M0 0 C2.5 -0.3125 2.5 -0.3125 5 0 C7 2 7 2 7.22705078 4.15478516 C7.21134033 5.45875244 7.21134033 5.45875244 7.1953125 6.7890625 C7.18564453 8.20058594 7.18564453 8.20058594 7.17578125 9.640625 C7.15902344 10.62546875 7.14226562 11.6103125 7.125 12.625 C7.11597656 13.61757812 7.10695313 14.61015625 7.09765625 15.6328125 C7.07404116 18.08878134 7.04110799 20.54427168 7 23 C6.34 23.33 5.68 23.66 5 24 C4.67 17.07 4.34 10.14 4 3 C2.02 3 0.04 3 -2 3 C-1.34 2.01 -0.68 1.02 0 0 Z " fill="" transform="translate(404,201)"/>
<path d="M0 0 C-5.99317721 5.6303335 -11.99050468 10.68255723 -19 15 C-19 13.35 -19 11.7 -19 10 C-17.35 10 -15.7 10 -14 10 C-14.33 9.01 -14.66 8.02 -15 7 C-14 6 -14 6 -11.4375 5.9375 C-10.2309375 5.9684375 -10.2309375 5.9684375 -9 6 C-9 5.34 -9 4.68 -9 4 C-8.34 3.67 -7.68 3.34 -7 3 C-6.67 2.01 -6.34 1.02 -6 0 C-3 -1 -3 -1 0 0 Z " fill="" transform="translate(369,249)"/>
<path d="M0 0 C0.33 0 0.66 0 1 0 C0.69512468 8.38407133 -2.96441147 13.25015535 -8.125 19.625 C-10 21 -10 21 -12.25 20.75 C-12.8275 20.5025 -13.405 20.255 -14 20 C-12.625 18.5 -12.625 18.5 -11 17 C-10.34 17 -9.68 17 -9 17 C-8.773125 16.484375 -8.54625 15.96875 -8.3125 15.4375 C-7.16536061 13.30709827 -5.94754528 11.55079033 -4.5 9.625 C-2.25966958 6.56519768 -0.9900201 3.69007491 0 0 Z " fill="" transform="translate(406,232)"/>
<path d="M0 0 C0.99 0.33 1.98 0.66 3 1 C2.1381848 4.23180698 1.51738545 6.48261455 -0.875 8.875 C-3 10 -3 10 -7 10 C-5.81752988 3.58087649 -5.81752988 3.58087649 -2.625 1.3125 C-1.75875 0.879375 -0.8925 0.44625 0 0 Z " fill="" transform="translate(382,230)"/>
<path d="M0 0 C3.125 0.52083333 6.25 1.04166667 9.375 1.5625 C10.674375 1.7790625 10.674375 1.7790625 12 2 C12 2.33 12 2.66 12 3 C-10.80127986 5.38776806 -10.80127986 5.38776806 -20 5 C-20.33 4.34 -20.66 3.68 -21 3 C-11.1 2.505 -11.1 2.505 -1 2 C-0.67 1.34 -0.34 0.68 0 0 Z " fill="" transform="translate(315,344)"/>
<path d="M0 0 C0.804375 1.2065625 0.804375 1.2065625 1.625 2.4375 C4.43105369 5.46508424 5.96825194 5.72510809 10 6 C10 6.33 10 6.66 10 7 C7.36 7.66 4.72 8.32 2 9 C2 8.01 2 7.02 2 6 C1.01 6 0.02 6 -1 6 C-0.67 6.66 -0.34 7.32 0 8 C0.40601504 16.39097744 0.40601504 16.39097744 -2 20 C-2.66 19.67 -3.32 19.34 -4 19 C-3.649375 18.46375 -3.29875 17.9275 -2.9375 17.375 C-1.35272252 13.3602304 -2.61204682 10.04975567 -4.0625 6.125 C-4.371875 5.42375 -4.68125 4.7225 -5 4 C-3.68 4 -2.36 4 -1 4 C-0.67 2.68 -0.34 1.36 0 0 Z " fill="" transform="translate(220,219)"/>
<path d="M0 0 C1.11375 0.7115625 1.11375 0.7115625 2.25 1.4375 C8.07445388 4.34280954 15.8399485 4.91602598 22.0625 3.0625 C23.031875 2.711875 24.00125 2.36125 25 2 C25.99 2 26.98 2 28 2 C27.0859375 3.9765625 27.0859375 3.9765625 25 6 C21.87329092 6.58145818 18.79467062 6.46542604 15.625 6.375 C14.77421875 6.37371094 13.9234375 6.37242187 13.046875 6.37109375 C8.68077682 6.30988677 4.88976518 6.21381425 1 4 C0.1875 1.875 0.1875 1.875 0 0 Z " fill="" transform="translate(287,159)"/>
<path d="M0 0 C2.93591598 2.93591598 2.29199158 5.4896209 2.32226562 9.5078125 C2.31904297 10.49523437 2.31582031 11.48265625 2.3125 12.5 C2.32861328 13.45648438 2.34472656 14.41296875 2.36132812 15.3984375 C2.3658503 22.07317082 1.26953892 27.72806951 -1 34 C-1.66 34 -2.32 34 -3 34 C-3.33 34.66 -3.66 35.32 -4 36 C-3.31412984 32.34202582 -2.44550682 28.75751424 -1.5 25.16015625 C-0.16800608 19.40552627 0.12723002 14.00049433 0.0625 8.125 C0.05798828 7.34125 0.05347656 6.5575 0.04882812 5.75 C0.03714093 3.83329986 0.01920908 1.91663952 0 0 Z " fill="" transform="translate(371,117)"/>
<path d="M0 0 C0.33 0.66 0.66 1.32 1 2 C-5.04361678 3.26520576 -10.73846478 4.17091987 -16.91796875 4.00390625 C-20.01752939 3.99809094 -22.94823038 4.48054985 -26 5 C-17.67183513 0.51560353 -9.28114302 -0.18941108 0 0 Z " fill="" transform="translate(243,179)"/>
<path d="M0 0 C0 0.33 0 0.66 0 1 C-0.92683594 1.20496094 -1.85367187 1.40992188 -2.80859375 1.62109375 C-4.00613281 1.89050781 -5.20367187 2.15992187 -6.4375 2.4375 C-8.22994141 2.83775391 -8.22994141 2.83775391 -10.05859375 3.24609375 C-12.8704686 3.70066748 -12.8704686 3.70066748 -14 5 C-15.99958364 5.04080783 -18.00045254 5.04254356 -20 5 C-20 5.99 -20 6.98 -20 8 C-22.31 7.67 -24.62 7.34 -27 7 C-24.13424282 4.13424282 -20.67103107 3.48540365 -16.875 2.375 C-16.14023438 2.14554687 -15.40546875 1.91609375 -14.6484375 1.6796875 C-9.60000367 0.18648876 -5.26120086 -0.22667305 0 0 Z " fill="" transform="translate(271,62)"/>
<path d="M0 0 C0.99 0.33 1.98 0.66 3 1 C2.814375 2.134375 2.62875 3.26875 2.4375 4.4375 C1.56981643 11.93332198 2.44057594 19.50371753 3 27 C2.67 25.68 2.34 24.36 2 23 C1.34 23 0.68 23 0 23 C0 15.41 0 7.82 0 0 Z " fill="" transform="translate(279,89)"/>
<path d="M0 0 C0 3.59857954 -0.95830515 5.09451118 -3 8 C-3.66 8 -4.32 8 -5 8 C-5 8.66 -5 9.32 -5 10 C-5.66 10 -6.32 10 -7 10 C-7.66 12.31 -8.32 14.62 -9 17 C-9.99 17 -10.98 17 -12 17 C-12 16.34 -12 15.68 -12 15 C-12.33 14.67 -12.66 14.34 -13 14 C-8.88380164 9.08064098 -4.59589638 4.47352044 0 0 Z " fill="" transform="translate(206,92)"/>
<path d="M0 0 C-0.36923077 6.4 -0.36923077 6.4 -3.5625 9.4375 C-4.7690625 10.2109375 -4.7690625 10.2109375 -6 11 C-6 9.68 -6 8.36 -6 7 C-5.34 7 -4.68 7 -4 7 C-4 5.68 -4 4.36 -4 3 C-5.98 3.33 -7.96 3.66 -10 4 C-6.83527002 0.53386716 -4.79371499 0 0 0 Z " fill="" transform="translate(406,299)"/>
<path d="M0 0 C0.33 0.66 0.66 1.32 1 2 C1.66 2.33 2.32 2.66 3 3 C3.12375 4.134375 3.2475 5.26875 3.375 6.4375 C3.684375 8.2009375 3.684375 8.2009375 4 10 C5.81601365 11.20003343 5.81601365 11.20003343 8 12 C10.25 14.625 10.25 14.625 12 17 C11.34 17.33 10.68 17.66 10 18 C9.67 17.34 9.34 16.68 9 16 C6.97536745 15.34786708 6.97536745 15.34786708 5 15 C5 13.68 5 12.36 5 11 C4.34 11 3.68 11 3 11 C-0.01704885 7.8000997 -1.49890042 5.38462134 -2 1 C-1.34 0.67 -0.68 0.34 0 0 Z " fill="" transform="translate(260,122)"/>
<path d="M0 0 C0.33 0 0.66 0 1 0 C1 2.97 1 5.94 1 9 C0.34 9 -0.32 9 -1 9 C-1.33 10.32 -1.66 11.64 -2 13 C-2.66 13 -3.32 13 -4 13 C-4 9.7 -4 6.4 -4 3 C-2.68 2.67 -1.36 2.34 0 2 C0 1.34 0 0.68 0 0 Z " fill="" transform="translate(323,107)"/>
<path d="M0 0 C0.33 1.32 0.66 2.64 1 4 C1.66 4 2.32 4 3 4 C3 5.65 3 7.3 3 9 C3.66 9 4.32 9 5 9 C5 9.99 5 10.98 5 12 C4.34 12 3.68 12 3 12 C1.921875 10.57421875 1.921875 10.57421875 0.75 8.6875 C-1.64949644 5.14913808 -3.97394769 3.5916951 -8 2 C-8 1.67 -8 1.34 -8 1 C-2.25 0 -2.25 0 0 0 Z " fill="" transform="translate(246,230)"/>
<path d="M0 0 C-0.66 2.31 -1.32 4.62 -2 7 C-4.31 7 -6.62 7 -9 7 C-9.33 7.99 -9.66 8.98 -10 10 C-11.65 10.33 -13.3 10.66 -15 11 C-14.67 10.34 -14.34 9.68 -14 9 C-13.34 9 -12.68 9 -12 9 C-12 8.34 -12 7.68 -12 7 C-10.68 6.67 -9.36 6.34 -8 6 C-8 5.34 -8 4.68 -8 4 C-2.58823529 0 -2.58823529 0 0 0 Z " fill="" transform="translate(224,79)"/>
<path d="M0 0 C4.51617599 -0.07654536 8.59085217 -0.10228696 13 1 C13 1.33 13 1.66 13 2 C9.37 2.33 5.74 2.66 2 3 C3.32 3.66 4.64 4.32 6 5 C6 5.66 6 6.32 6 7 C6.33 7.66 6.66 8.32 7 9 C4.04590299 7.62845496 1.55991624 6.01136276 -1 4 C-0.67 2.68 -0.34 1.36 0 0 Z " fill="" transform="translate(339,65)"/>
<path d="M0 0 C4.66403389 4.66403389 4.125 14.48413975 4.125 20.8125 C4.09392602 22.20860931 4.05669406 23.60469624 4 25 C3.67 25 3.34 25 3 25 C2.67 21.04 2.34 17.08 2 13 C1.34 13 0.68 13 0 13 C0 8.71 0 4.42 0 0 Z " fill="" transform="translate(361,107)"/>
<path d="M0 0 C0 0.99 0 1.98 0 3 C-2.99706695 3.86963087 -5.64956526 4.11763099 -8.765625 4.09765625 C-9.65507812 4.09443359 -10.54453125 4.09121094 -11.4609375 4.08789062 C-12.38132812 4.07951172 -13.30171875 4.07113281 -14.25 4.0625 C-15.18585938 4.05798828 -16.12171875 4.05347656 -17.0859375 4.04882812 C-19.39069041 4.03706918 -21.69531227 4.02063426 -24 4 C-24 3.67 -24 3.34 -24 3 C-22.73542969 2.86722656 -21.47085937 2.73445313 -20.16796875 2.59765625 C-18.50779375 2.41944537 -16.84763852 2.24105037 -15.1875 2.0625 C-14.35412109 1.97548828 -13.52074219 1.88847656 -12.66210938 1.79882812 C-11.45844727 1.66831055 -11.45844727 1.66831055 -10.23046875 1.53515625 C-9.49207764 1.456604 -8.75368652 1.37805176 -7.99291992 1.29711914 C-5.1411758 0.87196018 -2.93862411 0 0 0 Z " fill="" transform="translate(389,305)"/>
<path d="M0 0 C0.5534764 2.07553648 1 3.84365964 1 6 C0.01 6.495 0.01 6.495 -1 7 C-1.65213292 9.02463255 -1.65213292 9.02463255 -2 11 C-2.66 11 -3.32 11 -4 11 C-4.12375 11.763125 -4.2475 12.52625 -4.375 13.3125 C-5 16 -5 16 -7 19 C-6.6335348 12.40362635 -4.85986191 4.85986191 0 0 Z " fill="" transform="translate(319,208)"/>
<path d="M0 0 C0 3.93169105 -1.39419615 5.16427228 -4 8 C-4.66 8 -5.32 8 -6 8 C-6.226875 8.78375 -6.45375 9.5675 -6.6875 10.375 C-8 13 -8 13 -10.625 14.3125 C-11.40875 14.539375 -12.1925 14.76625 -13 15 C-9.88907126 9.14413414 -5.52731331 3.68487554 0 0 Z " fill="" transform="translate(336,188)"/>
<path d="M0 0 C0.99 0.33 1.98 0.66 3 1 C3 1.66 3 2.32 3 3 C3.66 3.66 4.32 4.32 5 5 C3.08487728 5.50588147 1.16783078 6.00448391 -0.75 6.5 C-2.35101563 6.91765625 -2.35101563 6.91765625 -3.984375 7.34375 C-7 8 -7 8 -11 8 C-11 7.01 -11 6.02 -11 5 C-7.7 5 -4.4 5 -1 5 C-0.67 3.35 -0.34 1.7 0 0 Z " fill="" transform="translate(339,338)"/>
<path d="M0 0 C0.33 0 0.66 0 1 0 C1.04898438 0.67546875 1.09796875 1.3509375 1.1484375 2.046875 C1.22320312 2.93890625 1.29796875 3.8309375 1.375 4.75 C1.44460937 5.63171875 1.51421875 6.5134375 1.5859375 7.421875 C1.99850055 9.99066382 2.71160957 11.75841015 4 14 C1.69 13.67 -0.62 13.34 -3 13 C-1.67924528 1.67924528 -1.67924528 1.67924528 0 0 Z " fill="" transform="translate(213,249)"/>
<path d="M0 0 C0.99 0 1.98 0 3 0 C3.33893061 5.53586661 2.3134716 9.00290134 0 14 C-0.69140522 16.77888613 -0.69140522 16.77888613 -1 19 C-1.33 19 -1.66 19 -2 19 C-2.02689216 17.52093108 -2.04634621 16.04172517 -2.0625 14.5625 C-2.07410156 13.73878906 -2.08570313 12.91507813 -2.09765625 12.06640625 C-2 10 -2 10 -1 9 C-0.76807135 7.48530552 -0.58784762 5.96245438 -0.4375 4.4375 C-0.35371094 3.61121094 -0.26992188 2.78492188 -0.18359375 1.93359375 C-0.12300781 1.29550781 -0.06242187 0.65742188 0 0 Z " fill="" transform="translate(445,224)"/>
<path d="M0 0 C2.63520741 2.40502363 4.40302943 5.0185849 6.25 8.0625 C6.79140625 8.94035156 7.3328125 9.81820312 7.890625 10.72265625 C8.25671875 11.47417969 8.6228125 12.22570312 9 13 C8.67 13.66 8.34 14.32 8 15 C7.2575 14.05125 6.515 13.1025 5.75 12.125 C3.72154781 9.67467599 2.0422152 8.12674637 -1 7 C-0.67 4.69 -0.34 2.38 0 0 Z " fill="" transform="translate(426,123)"/>
<path d="M0 0 C0.28125 2.29296875 0.28125 2.29296875 0 5 C-1.96875 6.80078125 -1.96875 6.80078125 -4.5 8.3125 C-5.3353125 8.82425781 -6.170625 9.33601563 -7.03125 9.86328125 C-7.6809375 10.23839844 -8.330625 10.61351562 -9 11 C-9 9.35 -9 7.7 -9 6 C-7.68 6 -6.36 6 -5 6 C-4.8453125 5.071875 -4.8453125 5.071875 -4.6875 4.125 C-3.92730223 1.77529781 -2.85021248 0 0 0 Z " fill="" transform="translate(393,313)"/>
<path d="M0 0 C-0.99 0.66 -1.98 1.32 -3 2 C-3.54140625 2.36867188 -4.0828125 2.73734375 -4.640625 3.1171875 C-8.29753217 4.48550045 -11.8830206 4.20836772 -15.75 4.125 C-16.54277344 4.11597656 -17.33554687 4.10695313 -18.15234375 4.09765625 C-20.10169281 4.07417012 -22.05088575 4.03830137 -24 4 C-24 3.67 -24 3.34 -24 3 C-23.28714844 2.95101563 -22.57429688 2.90203125 -21.83984375 2.8515625 C-14.43597903 2.27360267 -7.37401085 -0.35970785 0 0 Z " fill="" transform="translate(396,296)"/>
<path d="M0 0 C0.33 0 0.66 0 1 0 C1 3.63 1 7.26 1 11 C-0.98 11.99 -0.98 11.99 -3 13 C-7.875 8.25 -7.875 8.25 -9 6 C-7.35 5.67 -5.7 5.34 -4 5 C-3.67 6.65 -3.34 8.3 -3 10 C-2.01 10 -1.02 10 0 10 C0 6.7 0 3.4 0 0 Z " fill="" transform="translate(283,124)"/>
<path d="M0 0 C0.33 0 0.66 0 1 0 C1 3.3 1 6.6 1 10 C1.66 9.67 2.32 9.34 3 9 C3.33 8.01 3.66 7.02 4 6 C4.66 6 5.32 6 6 6 C5.75 8.375 5.75 8.375 5 11 C2.9375 12.3125 2.9375 12.3125 1 13 C-1 11 -1 11 -1.23046875 8.65234375 C-1.21628906 7.75644531 -1.20210938 6.86054687 -1.1875 5.9375 C-1.18105469 5.03902344 -1.17460937 4.14054687 -1.16796875 3.21484375 C-1 1 -1 1 0 0 Z " fill="" transform="translate(318,110)"/>
<path d="M0 0 C0.9075 0.103125 1.815 0.20625 2.75 0.3125 C-3.40034169 7.79541572 -3.40034169 7.79541572 -7.25 10.3125 C-7.63434723 6.94946176 -7.3439434 5.47509435 -5.625 2.5 C-3.25 0.3125 -3.25 0.3125 0 0 Z " fill="" transform="translate(193.25,186.6875)"/>
<path d="M0 0 C7.24579719 -0.67090715 11.75838097 1.41874318 18 5 C13.9154674 6.72251754 10.63026304 5.07280563 6.75 3.5625 C6.1003125 3.31951172 5.450625 3.07652344 4.78125 2.82617188 C3.18383183 2.22714006 1.59139406 1.61485679 0 1 C0 0.67 0 0.34 0 0 Z " fill="" transform="translate(269,179)"/>
<path d="M0 0 C3 1 3 1 4.16796875 2.71484375 C6.8873548 8.64331373 7.48747418 13.51388524 7 20 C6.67 20 6.34 20 6 20 C5.85304688 19.18208984 5.85304688 19.18208984 5.703125 18.34765625 C4.67097713 13.14242777 3.11354877 8.62548231 0.8046875 3.84765625 C0 2 0 2 0 0 Z " fill="" transform="translate(364,96)"/>
<path d="M0 0 C1.32 0.33 2.64 0.66 4 1 C2.75965588 2.32162881 1.50731374 3.63200453 0.25 4.9375 C-0.44609375 5.66839844 -1.1421875 6.39929688 -1.859375 7.15234375 C-4.00599725 9.00517646 -5.23532932 9.60771565 -8 10 C-8 9.34 -8 8.68 -8 8 C-7.34 8 -6.68 8 -6 8 C-6 7.01 -6 6.02 -6 5 C-5.34 5 -4.68 5 -4 5 C-4 4.34 -4 3.68 -4 3 C-3.34 3 -2.68 3 -2 3 C-1.34 2.01 -0.68 1.02 0 0 Z " fill="" transform="translate(417,279)"/>
<path d="M0 0 C0.66 0 1.32 0 2 0 C2.41694996 1.59880813 2.80790856 3.20441261 3.1875 4.8125 C3.40792969 5.70582031 3.62835938 6.59914062 3.85546875 7.51953125 C4 10 4 10 2.55078125 11.82421875 C1.78314453 12.40623047 1.78314453 12.40623047 1 13 C0.34 12.34 -0.32 11.68 -1 11 C-0.9765625 8.3984375 -0.9765625 8.3984375 -0.625 5.375 C-0.51414062 4.37210938 -0.40328125 3.36921875 -0.2890625 2.3359375 C-0.19367188 1.56507813 -0.09828125 0.79421875 0 0 Z " fill="" transform="translate(258,248)"/>
<path d="M0 0 C0.66 0 1.32 0 2 0 C2.309375 1.134375 2.61875 2.26875 2.9375 3.4375 C3.62924531 6.78775099 3.62924531 6.78775099 5 8 C5.14115161 10.67058851 5.04247107 13.32432238 5 16 C0.83609524 11.45755844 0 5.97762888 0 0 Z " fill="" transform="translate(311,252)"/>
<path d="M0 0 C0.96808594 0.04189453 1.93617188 0.08378906 2.93359375 0.12695312 C3.91714844 0.14951172 4.90070313 0.17207031 5.9140625 0.1953125 C8.33878845 0.25416507 10.76041358 0.33631882 13.18359375 0.43945312 C12.85359375 1.09945313 12.52359375 1.75945312 12.18359375 2.43945312 C10.95382812 2.4884375 9.7240625 2.53742188 8.45703125 2.58789062 C6.82419809 2.66296341 5.19138663 2.73850927 3.55859375 2.81445312 C2.75035156 2.84539062 1.94210937 2.87632812 1.109375 2.90820312 C-3.53478939 3.13474773 -7.44334481 3.69871993 -11.81640625 5.43945312 C-8.83361757 -0.13134337 -5.79073736 -0.0998403 0 0 Z " fill="" transform="translate(371.81640625,256.560546875)"/>
<path d="M0 0 C7.59 0 15.18 0 23 0 C23 0.33 23 0.66 23 1 C19.73203268 1.42249352 16.46075627 1.80834969 13.1875 2.1875 C12.25873047 2.30802734 11.32996094 2.42855469 10.37304688 2.55273438 C9.48037109 2.65263672 8.58769531 2.75253906 7.66796875 2.85546875 C6.84578857 2.95496826 6.0236084 3.05446777 5.17651367 3.15698242 C3 3 3 3 0 0 Z " fill="" transform="translate(354,307)"/>
<path d="M0 0 C-8.261959 6.51936219 -8.261959 6.51936219 -13 8 C-13 7.34 -13 6.68 -13 6 C-12.34 6 -11.68 6 -11 6 C-10.67 4.35 -10.34 2.7 -10 1 C-2.8 -1.4 -2.8 -1.4 0 0 Z " fill="" transform="translate(346,171)"/>
<path d="M0 0 C0 0.66 0 1.32 0 2 C-1.32 2 -2.64 2 -4 2 C-4 2.99 -4 3.98 -4 5 C-7.98060777 6.17076699 -11.91621717 7.25749403 -16 8 C-13.52093943 5.13437405 -10.87838941 3.8382206 -7.4375 2.3125 C-5.98150391 1.65701172 -5.98150391 1.65701172 -4.49609375 0.98828125 C-2 0 -2 0 0 0 Z " fill="" transform="translate(244,69)"/>
<path d="M0 0 C0.625 1.8125 0.625 1.8125 1 4 C0.01 5.485 0.01 5.485 -1 7 C-1.16699232 10.12521833 -1.16699232 10.12521833 -1 13 C-1.99 12.67 -2.98 12.34 -4 12 C-4 11.01 -4 10.02 -4 9 C-4.99 9.495 -4.99 9.495 -6 10 C-4.6302836 6.00499382 -2.74277578 3.19990508 0 0 Z " fill="" transform="translate(191,202)"/>
<path d="M0 0 C0.268125 0.639375 0.53625 1.27875 0.8125 1.9375 C1.88667752 4.33131686 1.88667752 4.33131686 5 5 C3.68 6.32 2.36 7.64 1 9 C0.67 8.01 0.34 7.02 0 6 C-2.00016466 4.79117904 -2.00016466 4.79117904 -4 4 C-2.68 2.68 -1.36 1.36 0 0 Z " fill="" transform="translate(392,308)"/>
<path d="M0 0 C0.66 0 1.32 0 2 0 C0.40956621 5.08938811 -2.7446951 8.87456643 -6 13 C-6.66 11.68 -7.32 10.36 -8 9 C-7.01 9 -6.02 9 -5 9 C-5 8.01 -5 7.02 -5 6 C-4.34 6 -3.68 6 -3 6 C-3 4.68 -3 3.36 -3 2 C-2.01 2 -1.02 2 0 2 C0 1.34 0 0.68 0 0 Z " fill="" transform="translate(431,263)"/>
<path d="M0 0 C0.33 0.99 0.66 1.98 1 3 C1.99 3.33 2.98 3.66 4 4 C2.02 8.29 0.04 12.58 -2 17 C-3.27116208 13.18651376 -2.3614221 11.7060935 -1 8 C-0.12634507 5.02957323 0 3.23181468 0 0 Z " fill="" transform="translate(177,202)"/>
<path d="M0 0 C0.33 0 0.66 0 1 0 C1.34886026 5.32011893 1.34886026 5.32011893 1 8 C-0.875 10 -0.875 10 -3 11 C-3.66 11 -4.32 11 -5 11 C-3.55049545 7.2089881 -1.84827434 3.6125362 0 0 Z " fill="" transform="translate(179,125)"/>
<path d="M0 0 C3.87051275 3.07881696 7.02911382 6.00073014 10 10 C9.67 10.66 9.34 11.32 9 12 C7.0625 11.25 7.0625 11.25 5 10 C4.5 8 4.5 8 4 6 C2.0162233 4.71563266 2.0162233 4.71563266 0 4 C0 2.68 0 1.36 0 0 Z " fill="" transform="translate(407,100)"/>
<path d="M0 0 C0.66 0 1.32 0 2 0 C2.33 3.3 2.66 6.6 3 10 C3.99 10.33 4.98 10.66 6 11 C5.67 11.99 5.34 12.98 5 14 C3.0625 13.1875 3.0625 13.1875 1 12 C0.03929566 9.11788698 -0.10581883 7.30149956 -0.0625 4.3125 C-0.05347656 3.50425781 -0.04445313 2.69601563 -0.03515625 1.86328125 C-0.02355469 1.24839844 -0.01195312 0.63351563 0 0 Z " fill="" transform="translate(303,107)"/>
<path d="M0 0 C1 3 1 3 1 5 C0.01 5 -0.98 5 -2 5 C-2 6.65 -2 8.3 -2 10 C-3.65 10.66 -5.3 11.32 -7 12 C-6.21331482 10.37258256 -5.4204759 8.74813869 -4.625 7.125 C-4.18414062 6.22007813 -3.74328125 5.31515625 -3.2890625 4.3828125 C-2 2 -2 2 0 0 Z " fill="" transform="translate(187,113)"/>
<path d="M0 0 C4.875 4.625 4.875 4.625 6 8 C5.34 8.66 4.68 9.32 4 10 C4 8.68 4 7.36 4 6 C2.35 6.66 0.7 7.32 -1 8 C-2.2077558 4.37673261 -1.54311128 3.35853631 0 0 Z " fill="" transform="translate(349,86)"/>
<path d="M0 0 C0.66 0 1.32 0 2 0 C2 0.99 2 1.98 2 3 C2.66 3 3.32 3 4 3 C4.28875 4.11375 4.5775 5.2275 4.875 6.375 C5.69241329 10.00291092 5.69241329 10.00291092 8 12 C7.01 13.485 7.01 13.485 6 15 C4.99267601 13.06629769 3.99436712 11.12789694 3 9.1875 C2.443125 8.10855469 1.88625 7.02960938 1.3125 5.91796875 C0 3 0 3 0 0 Z " fill="" transform="translate(183,273)"/>
<path d="M0 0 C0.99 0.33 1.98 0.66 3 1 C1.375 3.9375 1.375 3.9375 -1 7 C-4.25 7.875 -4.25 7.875 -7 8 C-5.625 6 -5.625 6 -4 4 C-3.34 4 -2.68 4 -2 4 C-1.34 2.68 -0.68 1.36 0 0 Z " fill="" transform="translate(355,171)"/>
<path d="M0 0 C0.99 0.495 0.99 0.495 2 1 C2 1.66 2 2.32 2 3 C3.65 3 5.3 3 7 3 C7 2.34 7 1.68 7 1 C7.66 1 8.32 1 9 1 C8.49396008 3.16874252 8.00016187 4.99967627 7 7 C4.69 6.34 2.38 5.68 0 5 C0 3.35 0 1.7 0 0 Z " fill="" transform="translate(348,264)"/>
<path d="M0 0 C0 2.62113708 -0.31292445 4.50935112 -1 7 C0.32 7.33 1.64 7.66 3 8 C-0.75 11 -0.75 11 -3 11 C-2.979375 10.21625 -2.95875 9.4325 -2.9375 8.625 C-2.81315937 6.01885039 -2.81315937 6.01885039 -4 4 C-3.34 4 -2.68 4 -2 4 C-1.34 2.68 -0.68 1.36 0 0 Z " fill="" transform="translate(376,233)"/>
<path d="M0 0 C5.625 -0.25 5.625 -0.25 9 2 C9 2.66 9 3.32 9 4 C10.32 4 11.64 4 13 4 C13 4.66 13 5.32 13 6 C12.34 6 11.68 6 11 6 C10.34 7.32 9.68 8.64 9 10 C8.67 7.69 8.34 5.38 8 3 C5.36 2.67 2.72 2.34 0 2 C0 1.34 0 0.68 0 0 Z " fill="" transform="translate(258,223)"/>
<path d="M0 0 C0.66 0.99 1.32 1.98 2 3 C1.34 3 0.68 3 0 3 C0.04125 4.216875 0.0825 5.43375 0.125 6.6875 C0.13754508 10.21894127 -0.40001783 12.80003566 -2 16 C-2.33 16 -2.66 16 -3 16 C-3.37851209 10.06997733 -2.10575375 5.52760359 0 0 Z " fill="" transform="translate(165,158)"/>
<path d="M0 0 C3.89985574 4.15984612 4.89169747 7.55084591 6 13 C4 11.6875 4 11.6875 2 10 C2 9.01 2 8.02 2 7 C1.34 6.67 0.68 6.34 0 6 C0 4.02 0 2.04 0 0 Z " fill="" transform="translate(355,94)"/>
<path d="M0 0 C1.17219543 0.78345715 2.33763668 1.57702836 3.5 2.375 C4.47453125 3.03628906 4.47453125 3.03628906 5.46875 3.7109375 C5.9740625 4.13632813 6.479375 4.56171875 7 5 C7 5.66 7 6.32 7 7 C8.32 7.66 9.64 8.32 11 9 C10.67 9.66 10.34 10.32 10 11 C8 9.625 8 9.625 6 8 C6 7.34 6 6.68 6 6 C4.35 6 2.7 6 1 6 C0.67 4.02 0.34 2.04 0 0 Z " fill="" transform="translate(337,74)"/>
<path d="M0 0 C3.7602985 0.58107632 6.53035032 1.65199496 9.8125 3.5625 C10.60269531 4.01753906 11.39289063 4.47257812 12.20703125 4.94140625 C12.79871094 5.29074219 13.39039063 5.64007813 14 6 C13.01 6.66 12.02 7.32 11 8 C11 7.34 11 6.68 11 6 C8.03 5.505 8.03 5.505 5 5 C4.67 4.01 4.34 3.02 4 2 C1.98491642 1.26676204 1.98491642 1.26676204 0 1 C0 0.67 0 0.34 0 0 Z " fill="" transform="translate(321,66)"/>
<path d="M0 0 C0.33 0 0.66 0 1 0 C1.1799928 5.21979128 0.97094808 9.07262981 -1 14 C-1.66 13.67 -2.32 13.34 -3 13 C-2.45144652 8.428721 -1.58255197 4.32564205 0 0 Z " fill="" transform="translate(181,219)"/>
<path d="M0 0 C0.66 0.33 1.32 0.66 2 1 C1.67 1.99 1.34 2.98 1 4 C0.401875 4.144375 -0.19625 4.28875 -0.8125 4.4375 C-3.19036586 4.85121298 -3.19036586 4.85121298 -5 7 C-7.0819403 9.0819403 -8.14458129 9.59208304 -11 10 C-11 9.34 -11 8.68 -11 8 C-9.217871 6.55925285 -7.37339724 5.19489351 -5.5 3.875 C-4.4790625 3.15054688 -3.458125 2.42609375 -2.40625 1.6796875 C-1.6121875 1.12539062 -0.818125 0.57109375 0 0 Z " fill="" transform="translate(208,187)"/>
<path d="M0 0 C0.33 0 0.66 0 1 0 C1 4.62 1 9.24 1 14 C-0.98 14.99 -0.98 14.99 -3 16 C-2.01 10.72 -1.02 5.44 0 0 Z " fill="" transform="translate(328,130)"/>
<path d="M0 0 C2.875 0.3125 2.875 0.3125 6 1 C6.66 1.99 7.32 2.98 8 4 C5.69 4.33 3.38 4.66 1 5 C0.67 3.35 0.34 1.7 0 0 Z " fill="" transform="translate(380,81)"/>
<path d="M0 0 C1.75280733 0.42611351 3.50217435 0.86639267 5.25 1.3125 C6.22453125 1.55613281 7.1990625 1.79976563 8.203125 2.05078125 C10.98975665 2.99652356 12.77304368 4.10708713 15 6 C13.24871182 5.71617054 11.49899997 5.42260471 9.75 5.125 C8.28820312 4.88136719 8.28820312 4.88136719 6.796875 4.6328125 C4.22735883 4.05144152 2.27928944 3.29159735 0 2 C0 1.34 0 0.68 0 0 Z " fill="" transform="translate(353,67)"/>
<path d="M0 0 C0 0.33 0 0.66 0 1 C-7.21805755 1.7938642 -13.80827843 2.07875823 -21 1 C-21 0.67 -21 0.34 -21 0 C-13.80827843 -1.07875823 -7.21805755 -0.7938642 0 0 Z " fill="" transform="translate(381,300)"/>
<path d="M0 0 C0.99 0.33 1.98 0.66 3 1 C4 4 4 4 3.22265625 5.82421875 C2.1484375 7.54947917 1.07421875 9.27473958 0 11 C-0.33 11 -0.66 11 -1 11 C-1.33 9.02 -1.66 7.04 -2 5 C-1.01 5 -0.02 5 1 5 C0.67 3.35 0.34 1.7 0 0 Z " fill="" transform="translate(354,151)"/>
<path d="M0 0 C5.98993047 -0.3152595 9.63560356 0.31780178 15 3 C11.34142468 4.31534494 8.91973519 3.65468309 5.25 2.5625 C4.26515625 2.27503906 3.2803125 1.98757813 2.265625 1.69140625 C1.51796875 1.46324219 0.7703125 1.23507812 0 1 C0 0.67 0 0.34 0 0 Z " fill="" transform="translate(259,342)"/>
<path d="M0 0 C2.57075841 3.01447835 3.52207066 5.35979771 4.1875 9.25 C4.34605469 10.14203125 4.50460937 11.0340625 4.66796875 11.953125 C4.83232422 12.96632812 4.83232422 12.96632812 5 14 C4.01 13.67 3.02 13.34 2 13 C1.855625 11.865625 1.71125 10.73125 1.5625 9.5625 C1.38828522 6.19222799 1.38828522 6.19222799 0 5 C-0.04063832 3.33382885 -0.042721 1.66611905 0 0 Z " fill="" transform="translate(295,219)"/>
<path d="M0 0 C-2.86299506 2.86299506 -4.65852284 2.99421225 -8.6875 3.0625 C-9.780625 3.041875 -10.87375 3.02125 -12 3 C-12 2.34 -12 1.68 -12 1 C-7.53763531 -0.80619523 -4.68965706 -1.11658501 0 0 Z " fill="" transform="translate(402,204)"/>
<path d="M0 0 C0.33 0 0.66 0 1 0 C1.50512244 1.60256108 2.00391627 3.20711792 2.5 4.8125 C2.7784375 5.70582031 3.056875 6.59914062 3.34375 7.51953125 C4 10 4 10 4 13 C3.34 13 2.68 13 2 13 C-0.20914 9.68629 -0.22481553 8.6553979 -0.125 4.8125 C-0.10695313 3.91144531 -0.08890625 3.01039063 -0.0703125 2.08203125 C-0.04710937 1.39496094 -0.02390625 0.70789063 0 0 Z " fill="" transform="translate(443,156)"/>
<path d="M0 0 C0.99 0 1.98 0 3 0 C3.33 1.98 3.66 3.96 4 6 C4.99 6.33 5.98 6.66 7 7 C6.67 8.32 6.34 9.64 6 11 C4.9944239 9.54550599 3.99569565 8.08627557 3 6.625 C2.443125 5.81289063 1.88625 5.00078125 1.3125 4.1640625 C0 2 0 2 0 0 Z " fill="" transform="translate(316,268)"/>
<path d="M0 0 C0.66 0.99 1.32 1.98 2 3 C1.00102287 5.99693138 0.34869747 7.02709413 -2 9 C-2.66 9 -3.32 9 -4 9 C-4 7.35 -4 5.7 -4 4 C-3.34 3.67 -2.68 3.34 -2 3 C-1.34 3.33 -0.68 3.66 0 4 C0 2.68 0 1.36 0 0 Z " fill="" transform="translate(222,237)"/>
<path d="M0 0 C2.13093906 1.06546953 3.36587557 2.29159719 5 4 C4.01 5.485 4.01 5.485 3 7 C2.34 6.67 1.68 6.34 1 6 C1 5.34 1 4.68 1 4 C-0.98 4.66 -2.96 5.32 -5 6 C-3.35 4.02 -1.7 2.04 0 0 Z " fill="" transform="translate(383,227)"/>
<path d="M0 0 C3.96 0 7.92 0 12 0 C12 0.99 12 1.98 12 3 C7.18550592 2.51855059 4.39828259 2.1991413 0 0 Z " fill="" transform="translate(249,173)"/>
<path d="M0 0 C0.33 0 0.66 0 1 0 C1.38281159 5.23175837 0.21854707 8.37802694 -2 13 C-2.66 13 -3.32 13 -4 13 C-3.40895235 8.15340923 -2.02055843 4.39251833 0 0 Z " fill="" transform="translate(173,136)"/>
<path d="M0 0 C1.875 0.3125 1.875 0.3125 4 1 C4.66 1.99 5.32 2.98 6 4 C8.05003955 5.19232613 8.05003955 5.19232613 10 6 C10 7.32 10 8.64 10 10 C9.34 10 8.68 10 8 10 C7.87625 9.071875 7.87625 9.071875 7.75 8.125 C7.18741541 5.81562433 7.18741541 5.81562433 4.9375 4.75 C4.298125 4.5025 3.65875 4.255 3 4 C3 3.34 3 2.68 3 2 C2.01 1.67 1.02 1.34 0 1 C0 0.67 0 0.34 0 0 Z " fill="" transform="translate(348,76)"/>
<path d="M0 0 C0 0.33 0 0.66 0 1 C-5.24385089 2.7479503 -9.47322267 3.19392201 -15 3 C-11.00349459 -0.99650541 -5.31261102 -0.09004425 0 0 Z " fill="" transform="translate(271,62)"/>
<path d="M0 0 C0.99 0 1.98 0 3 0 C3 1.32 3 2.64 3 4 C2.01 4.495 2.01 4.495 1 5 C1 5.66 1 6.32 1 7 C0.01 7 -0.98 7 -2 7 C-1.125 2.25 -1.125 2.25 0 0 Z " fill="" transform="translate(377,233)"/>
<path d="M0 0 C2.31 0 4.62 0 7 0 C7.33 0.66 7.66 1.32 8 2 C7.0925 1.896875 6.185 1.79375 5.25 1.6875 C1.80271869 1.66048792 1.80271869 1.66048792 -0.375 4.5 C-0.91125 5.325 -1.4475 6.15 -2 7 C-2 6.01 -2 5.02 -2 4 C-2.66 3.67 -3.32 3.34 -4 3 C-3.01 3 -2.02 3 -1 3 C-0.67 2.01 -0.34 1.02 0 0 Z " fill="" transform="translate(222,207)"/>
<path d="M0 0 C0.33 0.66 0.66 1.32 1 2 C-1.4824356 5.84777518 -1.4824356 5.84777518 -4.125 6.625 C-4.74375 6.74875 -5.3625 6.8725 -6 7 C-6.33 7.66 -6.66 8.32 -7 9 C-7.99 8.67 -8.98 8.34 -10 8 C-9.34 8 -8.68 8 -8 8 C-7.67 7.01 -7.34 6.02 -7 5 C-5.03852126 3.61061923 -3.03833424 2.2739589 -1 1 C-0.67 0.67 -0.34 0.34 0 0 Z " fill="" transform="translate(347,179)"/>
<path d="M0 0 C0.99 0.33 1.98 0.66 3 1 C1.54744301 4.82946843 -0.42895561 6.12050295 -4 8 C-4 6.35 -4 4.7 -4 3 C-2.35 3 -0.7 3 1 3 C0.67 2.01 0.34 1.02 0 0 Z " fill="" transform="translate(354,256)"/>
<path d="M0 0 C0 3 0 3 -1.75 5.25 C-4 7 -4 7 -6.25 6.75 C-6.8275 6.5025 -7.405 6.255 -8 6 C-5.38485683 3.87961365 -2.80362384 1.86908256 0 0 Z " fill="" transform="translate(400,246)"/>
<path d="M0 0 C0.66 0.33 1.32 0.66 2 1 C3.70363822 1.22622081 5.41328701 1.40888473 7.125 1.5625 C8.03507813 1.64628906 8.94515625 1.73007813 9.8828125 1.81640625 C10.58148438 1.87699219 11.28015625 1.93757812 12 2 C12 2.33 12 2.66 12 3 C7.38 3.33 2.76 3.66 -2 4 C-1.34 3.67 -0.68 3.34 0 3 C0 2.01 0 1.02 0 0 Z " fill="" transform="translate(222,170)"/>
<path d="M0 0 C0 0.66 0 1.32 0 2 C-0.99 2 -1.98 2 -3 2 C-3 2.66 -3 3.32 -3 4 C-3.66 4 -4.32 4 -5 4 C-5.33 4.99 -5.66 5.98 -6 7 C-7.65 7.33 -9.3 7.66 -11 8 C-10.67 7.34 -10.34 6.68 -10 6 C-9.34 6 -8.68 6 -8 6 C-8 5.34 -8 4.68 -8 4 C-6.68 3.67 -5.36 3.34 -4 3 C-4 2.34 -4 1.68 -4 1 C-2 0 -2 0 0 0 Z " fill="" transform="translate(220,82)"/>
<path d="M0 0 C2.50298434 2.93828597 3.46930939 5.17902761 4 9 C2.35 8.67 0.7 8.34 -1 8 C-0.67 5.36 -0.34 2.72 0 0 Z " fill="" transform="translate(437,142)"/>
<path d="M0 0 C0.33 0.66 0.66 1.32 1 2 C1.66 2.33 2.32 2.66 3 3 C2.67 4.65 2.34 6.3 2 8 C1.34 8 0.68 8 0 8 C-0.66 5.69 -1.32 3.38 -2 1 C-1.34 0.67 -0.68 0.34 0 0 Z " fill="#000000" transform="translate(260,122)"/>
<path d="M0 0 C2.76223278 2.76223278 2.57856291 5.20706617 3 9 C2.01 8.67 1.02 8.34 0 8 C-1.125 2.25 -1.125 2.25 0 0 Z " fill="" transform="translate(323,272)"/>
<path d="M0 0 C3.53790403 3.69172595 3.59115883 7.09390595 4 12 C0.46209597 8.30827405 0.40884117 4.90609405 0 0 Z " fill="" transform="translate(162,227)"/>
<path d="M0 0 C0.99 0 1.98 0 3 0 C3 2.31 3 4.62 3 7 C2.01 7 1.02 7 0 7 C0 4.69 0 2.38 0 0 Z " fill="" transform="translate(445,224)"/>
<path d="M0 0 C-5.75 3.875 -5.75 3.875 -8 5 C-8 3.35 -8 1.7 -8 0 C-4.94736336 -0.98120464 -3.05263664 -0.98120464 0 0 Z " fill="" transform="translate(372,214)"/>
<path d="M0 0 C1.48199902 0.44909061 2.96055236 0.90956564 4.4375 1.375 C5.26121094 1.63023437 6.08492188 1.88546875 6.93359375 2.1484375 C9 3 9 3 10 5 C6.63295715 5.2295711 4.58629732 5.33943529 1.625 3.625 C1.08875 3.08875 0.5525 2.5525 0 2 C0 1.34 0 0.68 0 0 Z " fill="" transform="translate(260,184)"/>
<path d="M0 0 C1.299375 0.7115625 1.299375 0.7115625 2.625 1.4375 C5.85387374 2.93234895 8.49033826 3.58218313 12 4 C12 4.33 12 4.66 12 5 C10.56344146 5.08131463 9.1255517 5.13933559 7.6875 5.1875 C6.48673828 5.23970703 6.48673828 5.23970703 5.26171875 5.29296875 C3 5 3 5 1.20703125 3.61328125 C0 2 0 2 0 0 Z " fill="" transform="translate(287,159)"/>
<path d="M0 0 C1.5 1.1875 1.5 1.1875 3 3 C3.1875 5.6875 3.1875 5.6875 3 8 C1.68 7.67 0.36 7.34 -1 7 C-0.67 4.69 -0.34 2.38 0 0 Z " fill="" transform="translate(426,123)"/>
<path d="M0 0 C2.97 1.98 2.97 1.98 6 4 C5.67 4.99 5.34 5.98 5 7 C4.67 6.34 4.34 5.68 4 5 C3.01 5.33 2.02 5.66 1 6 C0.67 4.02 0.34 2.04 0 0 Z " fill="" transform="translate(392,87)"/>
<path d="M0 0 C0.33 0 0.66 0 1 0 C1.125 7.75 1.125 7.75 0 10 C-1.32 9.67 -2.64 9.34 -4 9 C-4 8.34 -4 7.68 -4 7 C-2.68 7 -1.36 7 0 7 C0 4.69 0 2.38 0 0 Z " fill="" transform="translate(170,232)"/>
<path d="M0 0 C0.33 0.66 0.66 1.32 1 2 C-0.65 3.65 -2.3 5.3 -4 7 C-4.66 6.67 -5.32 6.34 -6 6 C-2.25 1.125 -2.25 1.125 0 0 Z " fill="" transform="translate(329,196)"/>
<path d="M0 0 C1.98 0 3.96 0 6 0 C6.66 1.98 7.32 3.96 8 6 C7.34 6 6.68 6 6 6 C5.67 4.68 5.34 3.36 5 2 C3.35 2 1.7 2 0 2 C0 1.34 0 0.68 0 0 Z " fill="" transform="translate(238,331)"/>
<path d="M0 0 C0.99 0.99 1.98 1.98 3 3 C1.63016497 6.16115776 1.0109362 6.9927092 -2 9 C-2 7.68 -2 6.36 -2 5 C-1.34 5 -0.68 5 0 5 C0 3.35 0 1.7 0 0 Z " fill="" transform="translate(402,301)"/>
<path d="M0 0 C2.97 1.65 5.94 3.3 9 5 C7.68 5.33 6.36 5.66 5 6 C4.01 5.34 3.02 4.68 2 4 C2 3.34 2 2.68 2 2 C1.34 2 0.68 2 0 2 C0 1.34 0 0.68 0 0 Z " fill="" transform="translate(328,294)"/>
<path d="M0 0 C0.99 0.495 0.99 0.495 2 1 C2.6328125 3.06640625 2.6328125 3.06640625 3.125 5.5625 C3.29257812 6.38878906 3.46015625 7.21507812 3.6328125 8.06640625 C3.75398438 8.70449219 3.87515625 9.34257812 4 10 C2 8.375 2 8.375 0 6 C-0.25 2.75 -0.25 2.75 0 0 Z " fill="" transform="translate(303,256)"/>
<path d="M0 0 C1.32 0 2.64 0 4 0 C4 0.99 4 1.98 4 3 C2.02 3.33 0.04 3.66 -2 4 C-1.34 2.68 -0.68 1.36 0 0 Z " fill="" transform="translate(365,245)"/>
<path d="M0 0 C4.12751449 0.60698743 7.3321148 2.03810791 11 4 C8.21176345 5.0326802 7.1322726 5.04509293 4.25 4.0625 C3.5075 3.711875 2.765 3.36125 2 3 C2 2.34 2 1.68 2 1 C1.34 0.67 0.68 0.34 0 0 Z " fill="" transform="translate(276,180)"/>
<path d="M0 0 C0.33 0 0.66 0 1 0 C1 2.64 1 5.28 1 8 C0.01 8.33 -0.98 8.66 -2 9 C-1.125 2.25 -1.125 2.25 0 0 Z " fill="" transform="translate(168,149)"/>
<path d="M0 0 C2.375 0.6875 2.375 0.6875 5 2 C6.3125 4.625 6.3125 4.625 7 7 C6.34 7 5.68 7 5 7 C3.7109375 5.46875 3.7109375 5.46875 2.375 3.5 C1.70597656 2.52546875 1.70597656 2.52546875 1.0234375 1.53125 C0.68570313 1.0259375 0.34796875 0.520625 0 0 Z " fill="" transform="translate(201,304)"/>
<path d="M0 0 C0.66 0 1.32 0 2 0 C2 0.66 2 1.32 2 2 C2.99 2.33 3.98 2.66 5 3 C4.34 4.32 3.68 5.64 3 7 C3 6.34 3 5.68 3 5 C2.34 5 1.68 5 1 5 C0.67 3.35 0.34 1.7 0 0 Z " fill="" transform="translate(193,291)"/>
<path d="M0 0 C1.32 0.66 2.64 1.32 4 2 C3.34 3.32 2.68 4.64 2 6 C0.68 5.34 -0.64 4.68 -2 4 C-1.34 3.67 -0.68 3.34 0 3 C0 2.01 0 1.02 0 0 Z " fill="" transform="translate(253,240)"/>
<path d="M0 0 C0.33 1.32 0.66 2.64 1 4 C-2.47823115 5.15941038 -4.45895578 4.70820884 -8 4 C-8 3.67 -8 3.34 -8 3 C-6.865625 2.690625 -5.73125 2.38125 -4.5625 2.0625 C-1.21224901 1.37075469 -1.21224901 1.37075469 0 0 Z " fill="" transform="translate(265,236)"/>
<path d="M0 0 C0.99 0.33 1.98 0.66 3 1 C2.34 2.98 1.68 4.96 1 7 C0.87625 6.360625 0.7525 5.72125 0.625 5.0625 C0.315625 4.0415625 0.315625 4.0415625 0 3 C-0.66 2.67 -1.32 2.34 -2 2 C-1.34 1.34 -0.68 0.68 0 0 Z " fill="" transform="translate(382,230)"/>
<path d="M0 0 C0.66 0.33 1.32 0.66 2 1 C0.8125 3 0.8125 3 -1 5 C-3.6875 5.25 -3.6875 5.25 -6 5 C-4.06745228 2.9754262 -2.36841312 1.57894208 0 0 Z " fill="" transform="translate(313,160)"/>
<path d="M0 0 C1 2 1 2 0.375 4.5625 C-1 7 -1 7 -3.625 7.8125 C-4.40875 7.874375 -5.1925 7.93625 -6 8 C-4.625 6 -4.625 6 -3 4 C-2.34 4 -1.68 4 -1 4 C-0.67 2.68 -0.34 1.36 0 0 Z " fill="" transform="translate(321,152)"/>
<path d="M0 0 C0.99 0.33 1.98 0.66 3 1 C3.33 3.64 3.66 6.28 4 9 C1.3144406 6.3144406 0.93950026 3.62378672 0 0 Z " fill="" transform="translate(364,96)"/>
</svg>