<svg width="181" height="187" viewBox="0 0 181 187" fill="none" xmlns="http://www.w3.org/2000/svg">
<path opacity="0.83" d="M141.272 56.6325C128.206 42.7174 110.064 34.0217 89.9388 33.8209C69.8139 33.6202 51.5094 41.9672 38.2006 55.6077C24.8919 69.2481 16.5588 88.2138 16.3667 109.24C16.1745 130.266 24.1638 149.39 37.2197 163.295C50.2756 177.199 68.4284 185.905 88.5533 186.106C108.678 186.307 126.983 177.96 140.291 164.319C153.61 150.668 161.933 131.713 162.125 110.687C162.318 89.6613 154.328 70.5477 141.272 56.6325Z" fill="url(#paint0_radial_107_13573)" fill-opacity="0.5"/>
<path d="M7.93328 99.6777C7.73102 121.676 16.0844 141.687 29.7571 156.247C43.4299 170.807 62.412 179.915 83.4673 180.126L84.1954 100.449L7.93328 99.6777Z" fill="#FFBB38"/>
<path d="M37.9279 99.9736C37.8066 113.329 42.8732 125.469 51.1759 134.302C59.4686 143.135 70.9873 148.661 83.7702 148.788L84.2151 100.439L37.9279 99.9736Z" fill="#FFB11F"/>
<path d="M25.4781 37.9098C10.1569 53.6107 0.579908 75.4185 0.357422 99.6037L84.2043 100.438L85.0033 12.8371C61.8445 12.6047 40.7993 22.209 25.4781 37.9098Z" fill="#4C78FF"/>
<path d="M51.7927 65.9203C43.3382 74.5843 38.0491 86.6188 37.9277 99.974L84.2048 100.439L84.6498 52.0896C71.867 51.9628 60.2471 57.2563 51.7927 65.9203Z" fill="#3464F3"/>
<path d="M152.832 30.0915C135.6 11.7386 111.672 0.264146 85.1156 0L84.1953 100.439L180.33 101.4C180.592 73.6544 170.065 48.4337 152.832 30.0915Z" fill="#16DBCC"/>
<path d="M117.234 66.5751C108.942 57.7421 97.4231 52.2161 84.6403 52.0894L84.1953 100.439L130.472 100.903C130.604 87.5483 125.537 75.4081 117.234 66.5751Z" fill="#1EC6B8"/>
<path d="M84.2042 100.438L83.5469 172.075C102.478 172.265 119.691 164.415 132.221 151.577C144.751 138.74 152.588 120.904 152.76 101.125L84.2042 100.438Z" fill="#FF82AC"/>
<path opacity="0.08" d="M84.1334 108.225L84.2041 100.438L7.94199 99.6777C7.92176 102.309 8.02289 104.908 8.23527 107.465L84.1334 108.225Z" fill="url(#paint1_linear_107_13573)"/>
<path d="M84.2047 100.438L83.7598 148.788C96.5426 148.914 108.162 143.621 116.617 134.957C125.071 126.293 130.36 114.259 130.482 100.903L84.2047 100.438Z" fill="#FF6195"/>
<path opacity="0.83" d="M114.888 83.6389C108.941 77.31 100.689 73.3478 91.5268 73.2527C82.3645 73.1576 74.0414 76.9613 67.9838 83.1635C61.9261 89.3762 58.1337 97.9979 58.0427 107.571C57.9517 117.143 61.5923 125.839 67.5287 132.168C73.4751 138.497 81.7273 142.459 90.8897 142.554C100.052 142.649 108.375 138.845 114.433 132.643C120.49 126.431 124.283 117.809 124.374 108.236C124.465 98.6635 120.834 89.9679 114.888 83.6389Z" fill="url(#paint2_radial_107_13573)" fill-opacity="0.5"/>
<path d="M107.88 76.1692C101.934 69.8403 93.6814 65.8781 84.519 65.783C75.3566 65.6879 67.0336 69.4916 60.9759 75.6937C54.9183 81.9064 51.1259 90.5282 51.0349 100.101C50.9439 109.673 54.5845 118.369 60.5209 124.698C66.4673 131.027 74.7195 134.989 83.8819 135.084C93.0443 135.179 101.367 131.376 107.425 125.173C113.483 118.961 117.275 110.339 117.366 100.766C117.457 91.1938 113.827 82.4981 107.88 76.1692Z" fill="white"/>
<defs>
<radialGradient id="paint0_radial_107_13573" cx="0" cy="0" r="1" gradientUnits="userSpaceOnUse" gradientTransform="translate(89.2421 109.964) rotate(0.568663) scale(72.8874 76.1504)">
<stop/>
<stop offset="1" stop-opacity="0"/>
</radialGradient>
<linearGradient id="paint1_linear_107_13573" x1="45.9845" y1="109.401" x2="46.0755" y2="100.238" gradientUnits="userSpaceOnUse">
<stop stop-color="white"/>
<stop offset="1"/>
</linearGradient>
<radialGradient id="paint2_radial_107_13573" cx="0" cy="0" r="1" gradientUnits="userSpaceOnUse" gradientTransform="translate(91.2156 107.903) rotate(0.568663) scale(33.1659 34.6507)">
<stop/>
<stop offset="1" stop-opacity="0"/>
</radialGradient>
</defs>
</svg>
